<svg width="61" height="70" viewBox="0 0 61 70" fill="none" xmlns="http://www.w3.org/2000/svg">
<path d="M60.0202 47.1785V64.6C60.0202 67.5821 57.6027 69.9996 54.6206 69.9996H5.64957C2.66746 69.9996 0.25 67.5821 0.25 64.6V5.39957C0.25 2.41746 2.66746 0 5.64957 0H44.6913C47.6734 0 50.0908 2.41746 50.0908 5.39957V34.2759C50.0908 36.5338 51.308 38.6163 53.2753 39.7243L56.836 41.73C58.8031 42.8381 60.0202 44.9206 60.0202 47.1785Z" fill="#0C1C2B"/>
<path d="M10.333 70.0001H5.64998C2.66828 70.0001 0.25 67.5832 0.25 64.6001V5.40047C0.25 2.4174 2.66828 0.000488281 5.64998 0.000488281H10.333C7.35131 0.000488281 4.93453 2.4174 4.93453 5.40047V64.6001C4.93453 67.5832 7.35131 70.0001 10.333 70.0001Z" fill="white" fill-opacity="0.2"/>
<path d="M13.4254 12.6624C13.4217 12.6528 13.418 12.6433 13.414 12.6337C13.2258 12.176 12.7847 11.8804 12.2899 11.8804C12.2895 11.8804 12.289 11.8804 12.2886 11.8804C11.7932 11.8809 11.352 12.1776 11.1647 12.636C11.1616 12.6438 11.1584 12.6517 11.1554 12.6597L8.51773 19.585C8.31005 20.1303 8.58362 20.7406 9.12886 20.9481C9.67396 21.1558 10.2843 20.8821 10.4919 20.337L10.8897 19.2926H13.6692L14.0622 20.334C14.2219 20.757 14.6239 21.0177 15.0507 21.0176C15.1746 21.0176 15.3006 20.9955 15.4234 20.9492C15.9692 20.7432 16.2448 20.1338 16.0388 19.5879L13.4254 12.6624ZM11.6945 17.1799L12.286 15.6269L12.8721 17.1799H11.6945Z" fill="white"/>
<path d="M34.6041 11.8806C34.0208 11.8806 33.5479 12.3535 33.5479 12.9369V19.9611C33.5479 20.5445 34.0208 21.0174 34.6041 21.0174C35.1875 21.0174 35.6604 20.5445 35.6604 19.9611V12.9369C35.6604 12.3535 35.1875 11.8806 34.6041 11.8806Z" fill="white"/>
<path d="M28.4326 11.8806H26.4433C26.1627 11.8806 25.8938 11.9922 25.6957 12.1907C25.4974 12.3892 25.3864 12.6584 25.387 12.939L25.4012 19.9649C25.4023 20.2452 25.5145 20.5134 25.7133 20.7109C25.9113 20.9073 26.1787 21.0175 26.4575 21.0175H26.4614C26.5216 21.0173 27.9413 21.0118 28.5092 21.0019C30.7205 20.9634 32.3254 19.0486 32.3254 16.4491C32.3256 13.7165 30.7612 11.8806 28.4326 11.8806ZM28.4724 18.8895C28.2477 18.8935 27.8747 18.8966 27.5102 18.8992C27.5076 18.0833 27.5028 14.8434 27.5015 13.9933H28.4326C30.0845 13.9933 30.2129 15.8729 30.2129 16.4491C30.213 17.6486 29.6747 18.8684 28.4724 18.8895Z" fill="white"/>
<path d="M22.9291 11.8806C22.3457 11.8806 21.8728 12.3535 21.8728 12.9369V17.7653C21.8728 18.0684 21.7846 18.4226 21.1303 18.7521C20.9263 18.8549 20.7034 18.9048 20.4491 18.9048C20.4482 18.9048 20.4473 18.9048 20.4465 18.9048C20.1713 18.9044 19.9334 18.8377 19.719 18.7007C19.2074 18.3738 19.1048 18.1024 19.1048 17.7703V12.9369C19.1048 12.3535 18.6319 11.8806 18.0485 11.8806C17.4651 11.8806 16.9922 12.3535 16.9922 12.9369V17.7703C16.9922 18.8951 17.5269 19.807 18.5817 20.4809C19.1373 20.836 19.7639 21.0164 20.4438 21.0174H20.4493C21.0332 21.0174 21.5821 20.8901 22.0807 20.639C23.3091 20.0203 23.9858 18.9997 23.9858 17.7651V12.9369C23.9854 12.3535 23.5124 11.8806 22.9291 11.8806Z" fill="white"/>
<path d="M42.207 11.8806H38.3278C37.7444 11.8806 37.2715 12.3535 37.2715 12.9369C37.2715 13.5203 37.7444 13.9932 38.3278 13.9932H39.2032V19.9611C39.2032 20.5445 39.6761 21.0174 40.2595 21.0174C40.8429 21.0174 41.3158 20.5445 41.3158 19.9611V13.9933H42.2069C42.7903 13.9933 43.2632 13.5204 43.2632 12.937C43.2633 12.3535 42.7904 11.8806 42.207 11.8806Z" fill="white"/>
<path d="M39.9537 25.4981H11.7582C11.1748 25.4981 10.7019 25.0252 10.7019 24.4418C10.7019 23.8584 11.1748 23.3855 11.7582 23.3855H39.9537C40.5371 23.3855 41.01 23.8584 41.01 24.4418C41.01 25.025 40.5371 25.4981 39.9537 25.4981Z" fill="white"/>
<path d="M33.6777 30.0396H18.0343C17.4509 30.0396 16.978 29.5667 16.978 28.9833C16.978 28.3999 17.4509 27.927 18.0343 27.927H33.6778C34.2612 27.927 34.7341 28.3999 34.7341 28.9833C34.734 29.5667 34.2611 30.0396 33.6777 30.0396Z" fill="white"/>
</svg>
