<svg width="428" height="274" viewBox="0 0 428 274" fill="none" xmlns="http://www.w3.org/2000/svg">
<path d="M47.8728 234.507H380.048V16.3346H47.8728V214.668V234.507Z" fill="#0C1C2B" stroke="#0C1C2B" stroke-width="2" stroke-miterlimit="10"/>
<path d="M37.0081 246.758V17.8626C37.0151 13.4721 38.7703 9.26395 41.8877 6.16185C45.0052 3.05974 49.2302 1.31713 53.6354 1.31714H374.285C378.691 1.31713 382.916 3.05974 386.033 6.16185C389.15 9.26395 390.906 13.4721 390.913 17.8626V246.758" stroke="#0C1C2B" stroke-width="2" stroke-miterlimit="10"/>
<path d="M37.008 272.682C17.3144 272.682 1.32153 261.091 1.32153 246.758H426.678C426.678 261.091 410.818 272.682 390.992 272.682H37.008Z" stroke="#0C1C2B" stroke-width="2" stroke-miterlimit="10"/>
<path d="M258.661 246.758H169.339V257.323H258.661V246.758Z" stroke="#0C1C2B" stroke-width="2" stroke-miterlimit="10"/>
<path d="M287.765 57.619H140.261C128.903 57.619 119.695 66.796 119.695 78.1163V187.558C119.695 198.879 128.903 208.056 140.261 208.056H287.765C299.124 208.056 308.331 198.879 308.331 187.558V78.1163C308.331 66.796 299.124 57.619 287.765 57.619Z" fill="white"/>
<path d="M279.888 158.472H148.112C145.718 158.472 143.777 160.407 143.777 162.793V187.611C143.777 189.997 145.718 191.932 148.112 191.932H279.888C282.282 191.932 284.223 189.997 284.223 187.611V162.793C284.223 160.407 282.282 158.472 279.888 158.472Z" fill="#0C1C2B"/>
<path d="M143.777 91.7637H258.952" stroke="#0C1C2B" stroke-width="2" stroke-miterlimit="10"/>
<path d="M172.848 181.195C175.053 181.195 176.673 179.665 176.673 177.415V170.26H173.508V177.01C173.508 178.03 172.863 178.705 171.933 178.705C171.513 178.705 170.988 178.645 170.598 178.555V180.895C171.183 181.075 172.068 181.195 172.848 181.195ZM183.924 181.225C187.509 181.225 189.939 179.05 189.939 175.63C189.939 172.21 187.509 170.05 183.924 170.05C180.324 170.05 177.894 172.21 177.894 175.63C177.894 179.05 180.324 181.225 183.924 181.225ZM183.924 178.63C182.229 178.63 181.059 177.445 181.059 175.63C181.059 173.83 182.229 172.63 183.924 172.63C185.619 172.63 186.774 173.83 186.774 175.63C186.774 177.445 185.619 178.63 183.924 178.63ZM191.249 181H194.414V170.26H191.249V181ZM196.127 181H199.082V174.355H199.232L202.757 181H206.147V170.26H203.192V176.92H203.042L199.517 170.26H196.127V181ZM211.508 181H214.463V174.355H214.613L218.138 181H221.528V170.26H218.573V176.92H218.423L214.898 170.26H211.508V181ZM228.851 181.225C232.436 181.225 234.866 179.05 234.866 175.63C234.866 172.21 232.436 170.05 228.851 170.05C225.251 170.05 222.821 172.21 222.821 175.63C222.821 179.05 225.251 181.225 228.851 181.225ZM228.851 178.63C227.156 178.63 225.986 177.445 225.986 175.63C225.986 173.83 227.156 172.63 228.851 172.63C230.546 172.63 231.701 173.83 231.701 175.63C231.701 177.445 230.546 178.63 228.851 178.63ZM237.988 181H242.398L243.898 174.49H244.048L245.548 181H249.958L252.853 170.26H249.688L247.693 178.135H247.543L245.548 170.26H242.398L240.418 178.135H240.268L238.258 170.26H235.093L237.988 181ZM254.768 177.28H256.163L256.958 173.41V170.26H253.988V173.41L254.768 177.28ZM255.458 181.165C256.388 181.165 257.033 180.535 257.033 179.65C257.033 178.765 256.388 178.135 255.458 178.135C254.558 178.135 253.898 178.765 253.898 179.65C253.898 180.535 254.558 181.165 255.458 181.165Z" fill="white"/>
<path d="M143.777 114.896H274.389" stroke="#0C1C2B" stroke-width="2" stroke-miterlimit="10"/>
<path d="M143.777 138.027H247.003" stroke="#0C1C2B" stroke-width="2" stroke-miterlimit="10"/>
</svg>
