<svg width="68" height="80" viewBox="0 0 68 80" fill="none" xmlns="http://www.w3.org/2000/svg">
<path d="M67.5505 14.5485V36.899C67.5505 57.2536 53.7278 75.0021 33.9835 80C14.2721 75.0186 0.449463 57.2536 0.449463 36.899V14.5485C15.9711 12.8 24.7629 6.89485 34 0C43.2371 6.89485 52.0288 12.8 67.5505 14.5485Z" fill="#0C1C2B" fill-opacity="0.9"/>
<path d="M33.9999 71.1751C19.138 66.4576 8.92773 52.6679 8.92773 36.8989V21.7566C19.369 19.4803 27.0391 15.2741 33.9999 10.4741C41.1092 15.4061 48.6308 19.5298 59.0721 21.7731V36.9154C59.0721 52.6679 48.8618 66.4576 33.9999 71.1751Z" fill="#0C1C2B"/>
<path d="M28.4412 53.6743L20.1772 45.4104L24.3669 41.2042L28.4412 45.2619L43.6329 30.0867L47.8226 34.2764L28.4412 53.6743Z" fill="white"/>
</svg>
