<svg width="66" height="70" viewBox="0 0 66 70" fill="none" xmlns="http://www.w3.org/2000/svg">
<path d="M45.6953 0.247803H6.82812V20.8594H20.2754L25.2559 28.4814H59.1719V13.7244L45.6953 0.247803Z" fill="#0C1C2B" fill-opacity="0.9"/>
<path d="M25.2517 28.4766L20.2712 20.8594H0.233398V69.2313H65.7668V28.4766H25.2517Z" fill="#0C1C2B"/>
<path d="M25.6827 41.4382H9.34131V46.1944H15.1335V57.9955H19.8905V46.1944H25.6827V41.4382Z" fill="white"/>
<path d="M56.6588 41.6533H51.5372L49.2202 45.6862L46.9031 41.6533L41.7808 41.6541L46.4759 49.8244L41.7808 57.9955H46.9031L49.2202 53.9626L51.5372 57.9955H56.6588L51.9637 49.8244L56.6588 41.6533Z" fill="white"/>
<path d="M36.0489 57.9955H40.8051L36.293 41.6541H29.0977L24.585 57.9955H29.3419L30.4886 53.842H34.9022L36.0489 57.9955ZM31.4049 50.524L32.695 45.8495L33.9859 50.524H31.4049Z" fill="white"/>
<path d="M36.293 41.6541H32.9536V46.7848L33.9859 50.524H32.9536V53.842H34.9022L36.0489 57.9955H40.805L36.293 41.6541Z" fill="white"/>
</svg>
