<svg width="214" height="341" viewBox="0 0 214 341" fill="none" xmlns="http://www.w3.org/2000/svg">
<path d="M102.064 156.849C102.064 156.849 106.217 156.965 107.757 157.09C109.296 157.215 117.777 157.273 119.05 156.998C120.332 156.732 126.465 153.904 128.496 154.486C130.526 155.068 139.831 157.298 141.054 159.028C142.277 160.759 143.459 164.91 142.868 167.048C142.277 169.186 141.204 170.841 140.255 171.906C139.306 172.971 118.542 166.574 112.617 168.345C106.683 170.126 99.5678 169.177 99.5678 169.177L99.8091 159.694L102.064 156.849Z" fill="white"/>
<path d="M33.4146 53.8095C33.5394 53.4434 32.8903 37.629 32.8903 37.629C32.8903 37.629 29.3783 32.2965 29.861 30.5828C30.352 28.8691 31.5754 26.5481 32.6739 25.3252C33.7725 24.1023 35.9779 8.6955 47.2295 9.80193C58.4811 10.9 72.9118 13.1046 72.5457 17.3805C72.1795 21.6565 72.8536 33.17 71.0476 38.3528C69.2417 43.5438 67.286 50.7564 62.7587 53.6847C58.2314 56.6213 55.9095 57.2286 55.9095 57.2286L54.811 78.259L33.4146 53.8095Z" fill="white"/>
<path d="M160.878 254.605L175.109 284.778C175.109 284.778 167.053 292.49 161.735 291.808C156.417 291.126 149.043 286.151 149.043 286.151L143.043 261.294L160.878 254.605Z" fill="white" stroke="black" stroke-width="2" stroke-miterlimit="10" stroke-linecap="round" stroke-linejoin="round"/>
<path d="M148.361 280.144C148.361 280.144 142.186 304.827 143.218 305.684C144.25 306.541 151.624 307.398 152.822 307.572C154.02 307.747 171.688 305.859 174.26 305.684C176.832 305.509 190.896 306.541 194.841 305.168C198.786 303.795 205.643 297.797 206.675 296.25C207.707 294.703 203.587 292.482 201.698 291.275C199.809 290.077 186.743 287.773 183.315 285.028C179.886 282.282 177.006 276.476 175.883 273.523C174.443 269.746 171.347 268.822 170.315 268.481C169.283 268.14 168.601 273.963 168.601 273.963L172.204 280.652C172.204 280.652 167.918 283.913 163.974 285.793C160.029 287.681 154.886 285.618 154.886 285.618L148.361 280.144Z" fill="white" stroke="black" stroke-width="2" stroke-linecap="round" stroke-linejoin="round"/>
<path d="M11.2196 331.573C11.2196 331.573 24.6516 219.116 28.0471 212.02C30.9265 206.006 55.9265 206.538 64.1488 208.318C72.3712 210.099 72.7706 221.396 74.768 229.166C76.7653 236.944 96.3225 322.904 96.3225 322.904" stroke="black" stroke-width="8" stroke-miterlimit="10" stroke-linecap="round" stroke-linejoin="round"/>
<path d="M86.0862 280.17L17.0201 287.565L39.7565 266.976L86.0862 280.17Z" stroke="black" stroke-width="8" stroke-miterlimit="10" stroke-linecap="round" stroke-linejoin="round"/>
<path d="M43.7842 211.405L38.3248 307.14" stroke="black" stroke-width="8" stroke-miterlimit="10" stroke-linecap="round" stroke-linejoin="round"/>
<path d="M90.7548 264.064C90.7548 264.064 77.5308 285.111 76.9899 287.291C76.4406 289.47 73.8358 292.432 78.4796 293.247C83.115 294.062 101.54 286.151 101.54 286.151L107 269.105L90.7548 264.064Z" fill="white" stroke="black" stroke-width="2" stroke-miterlimit="10" stroke-linecap="round" stroke-linejoin="round"/>
<path d="M96.6218 283.572C96.6218 283.572 96.3472 277.574 98.9437 276.617C101.54 275.661 106.991 273.756 107.541 274.979C108.09 276.21 108.631 284.795 109.455 286.301C110.27 287.798 126.923 300.892 128.696 301.3C130.468 301.708 135.112 305.393 134.837 308.255C134.563 311.116 130.743 313.986 123.511 314.394C116.279 314.802 102.772 315.076 97.995 312.897C93.2181 310.717 90.763 310.442 88.0333 309.893C85.3036 309.344 71.7967 308.529 69.2002 306.757C66.6036 304.985 65.7881 303.754 65.7881 303.754C65.7881 303.754 69.4748 294.345 70.6982 290.934C71.9299 287.524 76.016 280.02 76.016 280.02C76.016 280.02 74.6512 286.159 77.5141 286.7C80.3769 287.249 84.1968 283.289 88.1581 283.015C92.1195 282.74 96.6218 283.572 96.6218 283.572Z" fill="white" stroke="black" stroke-width="2" stroke-linecap="round" stroke-linejoin="round"/>
<path d="M47.7706 215.398C32.125 215.398 19.4418 212.712 19.4418 209.4C19.4418 206.087 32.125 203.402 47.7706 203.402C63.4161 203.402 76.0994 206.087 76.0994 209.4C76.0994 212.712 63.4161 215.398 47.7706 215.398Z" fill="black"/>
<path d="M90.6382 174.751C90.6382 174.751 141.304 181.456 144.075 185.849C146.846 190.241 154.719 224.008 157.491 231.403C160.262 238.799 165.821 251.985 165.821 251.985C165.821 251.985 163.041 258.232 156.334 259.613C149.626 261.002 143.376 264.929 143.376 264.929C143.376 264.929 125.333 222.377 123.253 217.752C121.172 213.127 81.6086 193.702 81.6086 193.702L90.6382 174.751Z" fill="#0C1C2B" stroke="black" stroke-width="2" stroke-miterlimit="10"/>
<path d="M16.3794 205.158C12.0518 204.775 49.3187 213.51 76.524 217.071C89.7979 218.809 110.296 218.46 111.452 219.15C112.609 219.841 112.143 218.46 112.609 219.841C113.075 221.23 89.2403 264.938 89.2403 264.938C89.2403 264.938 90.8632 270.953 96.4141 271.41C101.965 271.876 109.596 272.8 112.376 272.8C115.156 272.8 121.63 270.254 121.63 270.254C121.63 270.254 126.491 257.751 128.346 254.057C130.202 250.363 136.436 235.797 141.063 230.023C145.69 224.242 150.55 214.991 150.783 210.133C151.016 205.274 147.779 195.333 137.825 192.33C127.88 189.327 70.274 179.153 67.2697 178.92C64.2654 178.678 16.3794 205.158 16.3794 205.158Z" fill="#0C1C2B" stroke="black" stroke-width="2" stroke-miterlimit="10"/>
<path d="M209.255 287.915L151.465 292.124L124.094 284.87L119.641 286.043L119.874 294.928L149.593 303.58L208.789 298.671L209.255 287.915Z" fill="white" stroke="black" stroke-width="2" stroke-miterlimit="10" stroke-linecap="round" stroke-linejoin="round"/>
<path d="M203.18 340C200.169 340 197.729 337.56 197.729 334.551C197.729 331.542 200.169 329.102 203.18 329.102C206.19 329.102 208.631 331.542 208.631 334.551C208.631 337.56 206.19 340 203.18 340Z" fill="white" stroke="black" stroke-width="2" stroke-miterlimit="10" stroke-linecap="round" stroke-linejoin="round"/>
<path d="M200.683 340C197.672 340 195.232 337.56 195.232 334.551C195.232 331.542 197.672 329.102 200.683 329.102C203.693 329.102 206.134 331.542 206.134 334.551C206.134 337.56 203.693 340 200.683 340Z" fill="white" stroke="black" stroke-width="2" stroke-miterlimit="10" stroke-linecap="round" stroke-linejoin="round"/>
<path d="M116.587 338.744C113.576 338.744 111.136 336.304 111.136 333.295C111.136 330.285 113.576 327.846 116.587 327.846C119.597 327.846 122.038 330.285 122.038 333.295C122.038 336.304 119.597 338.744 116.587 338.744Z" fill="white" stroke="black" stroke-width="2" stroke-miterlimit="10" stroke-linecap="round" stroke-linejoin="round"/>
<path d="M114.082 338.744C111.071 338.744 108.631 336.304 108.631 333.295C108.631 330.285 111.071 327.846 114.082 327.846C117.092 327.846 119.533 330.285 119.533 333.295C119.533 336.304 117.092 338.744 114.082 338.744Z" fill="white" stroke="black" stroke-width="2" stroke-miterlimit="10" stroke-linecap="round" stroke-linejoin="round"/>
<path d="M206.01 311.932C202.999 311.932 200.559 309.492 200.559 306.483C200.559 303.473 202.999 301.034 206.01 301.034C209.02 301.034 211.461 303.473 211.461 306.483C211.461 309.492 209.02 311.932 206.01 311.932Z" fill="white" stroke="black" stroke-width="2" stroke-miterlimit="10" stroke-linecap="round" stroke-linejoin="round"/>
<path d="M203.505 311.932C200.494 311.932 198.053 309.492 198.053 306.483C198.053 303.473 200.494 301.034 203.505 301.034C206.515 301.034 208.956 303.473 208.956 306.483C208.956 309.492 206.515 311.932 203.505 311.932Z" fill="white" stroke="black" stroke-width="2" stroke-miterlimit="10" stroke-linecap="round" stroke-linejoin="round"/>
<path d="M108.972 286.018C108.972 286.018 106.634 285.486 102.073 288.78" stroke="black" stroke-width="2" stroke-miterlimit="10" stroke-linecap="round" stroke-linejoin="round"/>
<path d="M112.576 289.628C112.576 289.628 110.237 289.096 105.677 292.39" stroke="black" stroke-width="2" stroke-miterlimit="10" stroke-linecap="round" stroke-linejoin="round"/>
<path d="M116.612 293.123C116.612 293.123 114.273 292.59 109.713 295.885" stroke="black" stroke-width="2" stroke-miterlimit="10" stroke-linecap="round" stroke-linejoin="round"/>
<path d="M146.322 195.058H155.443V308.728H146.322V195.058Z" fill="white" stroke="black" stroke-width="2" stroke-miterlimit="10" stroke-linecap="round" stroke-linejoin="round"/>
<path d="M213 315.975L152.822 307.573L146.314 308.729L112.626 313.87L112.859 326.507L151.232 318.787L212.767 327.439L213 315.975Z" fill="white" stroke="black" stroke-width="2" stroke-miterlimit="10" stroke-linecap="round" stroke-linejoin="round"/>
<path d="M210.428 188.752L212.833 191.123L212.667 198.552H122.796V191.947L128.746 177.746L210.428 188.752Z" fill="white" stroke="black" stroke-width="2" stroke-miterlimit="10" stroke-linecap="round" stroke-linejoin="round"/>
<path d="M130.203 171.931L127.931 188.153L203.912 189.368L210.437 188.76L211.652 171.781L206.95 164.352L202.856 157.531L130.203 171.931Z" fill="white" stroke="black" stroke-width="2" stroke-miterlimit="10" stroke-linecap="round" stroke-linejoin="round"/>
<path d="M151.04 173.866L150.89 165.231H151.04L198.5 156L199.725 163.708L151.04 173.866Z" fill="white" stroke="black" stroke-width="2" stroke-miterlimit="10" stroke-linecap="round" stroke-linejoin="round"/>
<path d="M128.072 187.945L130.81 183.603L211.644 171.773" stroke="black" stroke-width="2" stroke-miterlimit="10" stroke-linecap="round" stroke-linejoin="round"/>
<path d="M198.5 156.5L210.5 113L207.733 113.17L196 156.5" stroke="black" stroke-width="2" stroke-miterlimit="10" stroke-linecap="round" stroke-linejoin="round"/>
<path d="M122.662 170.218C122.953 170.218 128.038 172.464 127.547 174.71C127.056 176.956 123.636 176.074 121.588 175.292C119.541 174.51 116.703 172.755 116.703 172.755L122.662 170.218Z" fill="white" stroke="black" stroke-width="2" stroke-miterlimit="10" stroke-linecap="round" stroke-linejoin="round"/>
<path d="M99.3599 165.584C99.3599 165.584 108.098 163.787 110.545 163.912C112.983 164.037 124.942 162.24 126.482 162.498C128.022 162.755 134.197 162.88 136.51 164.428C138.824 165.967 142.552 171.241 142.677 171.748C142.802 172.264 142.294 173.162 142.294 173.162C142.294 173.162 141.911 175.858 141.262 176.249C140.621 176.632 137.276 173.553 134.838 172.006C132.399 170.467 127.256 170.725 125.708 170.85C124.168 170.975 117.286 174.71 113.183 174.81C109.08 174.909 102.04 174.227 100.284 173.836C98.5277 173.445 99.3599 165.584 99.3599 165.584Z" fill="white" stroke="black" stroke-width="2" stroke-miterlimit="10" stroke-linecap="round" stroke-linejoin="round"/>
<path d="M142.286 173.171C142.286 173.171 136.344 167.489 133.023 166.516C129.703 165.542 128.038 165.343 128.038 165.343" stroke="black" stroke-width="2" stroke-miterlimit="10" stroke-linecap="round" stroke-linejoin="round"/>
<path d="M105.011 156.724C105.011 156.724 116.421 157.955 119.051 156.999C121.68 156.042 126.707 154.129 128.496 154.486C130.294 154.844 140.097 158.43 141.054 159.029C142.012 159.628 142.969 164.885 143.21 166.324C143.451 167.755 141.895 169.311 141.895 169.311" stroke="black" stroke-width="2" stroke-miterlimit="10" stroke-linecap="round" stroke-linejoin="round"/>
<path d="M141.179 168.238C141.179 168.238 138.424 161.541 137.234 160.584C136.036 159.628 134.005 159.153 134.005 159.153" stroke="black" stroke-width="2" stroke-miterlimit="10" stroke-linecap="round" stroke-linejoin="round"/>
<path d="M100.8 155.784L105.011 156.716C105.011 156.716 100.001 162.88 99.7428 164.552C99.4848 166.225 91.7701 164.81 91.7701 164.81L100.8 155.784Z" fill="white" stroke="black" stroke-width="2" stroke-miterlimit="10" stroke-linecap="round" stroke-linejoin="round"/>
<path d="M100.242 162.281C100.242 162.281 101.415 164.694 101.673 168.679C101.931 172.663 101.549 177.414 101.549 177.414C101.549 177.414 95.5066 180.625 93.3262 180.883C91.1374 181.14 91.8199 163.23 91.8199 163.23L100.242 162.281Z" fill="white" stroke="black" stroke-width="2" stroke-miterlimit="10" stroke-linecap="round" stroke-linejoin="round"/>
<path d="M71.6136 146.192L100.8 155.792C100.8 155.792 94.7743 162.755 94.3998 165.392C94.0253 168.029 85.3619 168.778 80.277 166.707C75.1921 164.635 66.9115 161.432 66.9115 161.432L71.6136 146.192Z" fill="#0C1C2B" stroke="black" stroke-width="2" stroke-linecap="round" stroke-linejoin="round"/>
<path d="M55.9845 79.9315C55.9845 79.9315 59.3716 84.0744 60.3121 91.7861C61.2525 99.5061 66.9032 110.229 68.7841 119.081C70.6649 127.924 73.4944 143.93 73.8689 150.893C74.2434 157.856 75.1838 177.996 75.1838 177.996C75.1838 177.996 63.1333 187.596 57.6739 193.053C52.2146 198.511 47.5042 203.028 38.0918 206.039C28.6793 209.051 22.2712 210.931 15.1225 208.859C7.96536 206.788 0.999641 200.574 0.999641 200.574C0.999641 200.574 2.6974 162.556 4.20373 148.247C5.71004 133.938 6.08453 101.195 8.34817 91.7778C10.6118 82.369 16.6371 70.1317 20.9647 65.4232C25.2922 60.7146 26.0495 60.5316 28.3048 59.9659C30.5602 59.4169 55.9845 79.9315 55.9845 79.9315Z" fill="#0C1C2B" stroke="black" stroke-width="2" stroke-linecap="round" stroke-linejoin="round"/>
<path d="M65.6132 35.7241C62.4143 35.7241 59.821 33.1318 59.821 29.9341C59.821 26.7363 62.4143 24.144 65.6132 24.144C68.8122 24.144 71.4055 26.7363 71.4055 29.9341C71.4055 33.1318 68.8122 35.7241 65.6132 35.7241Z" stroke="black" stroke-width="2" stroke-miterlimit="10" stroke-linecap="round" stroke-linejoin="round"/>
<path d="M48.0285 35.7241C44.8295 35.7241 42.2363 33.1318 42.2363 29.9341C42.2363 26.7363 44.8295 24.144 48.0285 24.144C51.2275 24.144 53.8208 26.7363 53.8208 29.9341C53.8208 33.1318 51.2275 35.7241 48.0285 35.7241Z" stroke="black" stroke-width="2" stroke-miterlimit="10" stroke-linecap="round" stroke-linejoin="round"/>
<path d="M59.7549 28.7363H53.8211" stroke="black" stroke-width="2" stroke-miterlimit="10" stroke-linecap="round" stroke-linejoin="round"/>
<path d="M42.3113 28.0372C42.2447 27.8293 35.304 24.1855 35.304 24.1855" stroke="black" stroke-width="2" stroke-miterlimit="10" stroke-linecap="round" stroke-linejoin="round"/>
<path d="M64.0657 29.7177C63.5833 29.7177 63.1922 29.3266 63.1922 28.8442C63.1922 28.3618 63.5833 27.9707 64.0657 27.9707C64.5481 27.9707 64.9392 28.3618 64.9392 28.8442C64.9392 29.3266 64.5481 29.7177 64.0657 29.7177Z" stroke="black" stroke-width="2" stroke-miterlimit="10" stroke-linecap="round" stroke-linejoin="round"/>
<path d="M47.1468 29.7177C46.6643 29.7177 46.2733 29.3266 46.2733 28.8442C46.2733 28.3618 46.6643 27.9707 47.1468 27.9707C47.6292 27.9707 48.0203 28.3618 48.0203 28.8442C48.0203 29.3266 47.6292 29.7177 47.1468 29.7177Z" stroke="black" stroke-width="2" stroke-miterlimit="10" stroke-linecap="round" stroke-linejoin="round"/>
<path d="M58.9143 37.3545C58.9143 37.3545 56.4592 38.3361 54.6367 37.5625" stroke="black" stroke-width="2" stroke-miterlimit="10" stroke-linecap="round" stroke-linejoin="round"/>
<path d="M58.9722 45.7148L49.4848 41.4805C49.4848 41.4805 49.0521 45.3488 51.5987 46.9876C56.0927 49.866 58.9722 45.7148 58.9722 45.7148Z" stroke="black" stroke-width="2" stroke-miterlimit="10" stroke-linecap="round" stroke-linejoin="round"/>
<path d="M67.4609 22.4386C67.4609 22.4386 63.9573 20.8248 62.0682 21.7399" stroke="black" stroke-width="2" stroke-miterlimit="10" stroke-linecap="round" stroke-linejoin="round"/>
<path d="M51.7734 20.2673C51.7734 20.2673 48.2698 18.6534 46.3807 19.5685" stroke="black" stroke-width="2" stroke-miterlimit="10" stroke-linecap="round" stroke-linejoin="round"/>
<path d="M36.3608 38.0451C36.3608 38.0451 40.5884 55.7812 51.5738 57.3036C58.9805 58.3269 67.7937 52.2041 71.6969 35.8905C74.9092 22.4553 71.4389 12.7886 58.0817 11.0999C44.7329 9.4111 36.6187 16.424 35.6034 20.9828C34.5881 25.5417 35.412 27.663 35.412 27.663C35.412 27.663 33.3148 26.307 30.8681 28.7528C28.4214 31.1986 32.8987 37.6209 32.8987 37.6209L33.3232 50.6318" stroke="black" stroke-width="2" stroke-miterlimit="10" stroke-linecap="round" stroke-linejoin="round"/>
<path d="M55.7932 57.4619L55.1194 75.4726" stroke="black" stroke-width="2" stroke-miterlimit="10" stroke-linecap="round" stroke-linejoin="round"/>
<path d="M32.8488 29.1104C35.2123 29.5264 37.5009 28.0456 38.0752 25.7163C38.6244 23.4951 39.3235 20.8913 39.9726 19.2774C41.2875 15.9997 44.3085 15.7335 52.9719 16.6486C61.6353 17.5637 69.5997 17.0562 71.1476 22.2473C71.8134 24.4768 71.0561 38.3612 71.0561 38.3612C71.0561 38.3612 73.7858 32.2051 74.9675 26.1655C76.1493 20.1259 75.0507 17.9879 75.0507 15.0846C75.0507 14.8434 77.123 13.2711 78.2548 9.98505C79.4948 6.36628 79.8027 1.00052 79.8027 1.00052C79.8027 1.00052 73.7109 4.8439 64.7811 2.4813C63.6743 2.19014 62.3011 1.80747 60.7532 1.43311C53.0385 -0.422023 40.8132 -2.12742 33.9307 7.5975C26.707 17.7966 30.8598 28.761 30.8598 28.761L32.8488 29.1104Z" fill="black"/>
<path d="M31.1427 54.7415C31.1427 54.3422 32.0748 49.9414 32.0748 49.9414L59.1553 77.8101C59.1553 77.8101 53.0218 90.2137 53.1549 89.8144C53.2881 89.4151 31.1427 54.7415 31.1427 54.7415Z" fill="white" stroke="black" stroke-width="2" stroke-miterlimit="10" stroke-linecap="round" stroke-linejoin="round"/>
<path d="M31.1426 54.7412L25.9412 61.4047C25.9412 61.4047 32.7404 66.471 38.8822 75.6718C45.0157 84.8727 54.6195 101.544 56.6252 107.409C58.6225 113.274 59.9624 117.009 59.9624 117.009C59.9624 117.009 55.0273 94.8721 51.8233 84.3402C48.6192 73.8084 31.1426 54.7412 31.1426 54.7412Z" fill="#0C1C2B" stroke="black" stroke-width="2" stroke-linecap="round" stroke-linejoin="round"/>
<path d="M15.2223 117.841C15.2223 117.841 17.2196 120.827 19.3501 126.809C21.4889 132.79 42.2695 172.78 45.5484 174.768C48.8191 176.764 93.3845 183.877 93.3845 183.877C93.3845 183.877 96.2307 177.754 96.9464 172.78C97.6621 167.805 95.3818 162.389 95.3818 162.389C95.3818 162.389 66.7201 157.298 63.7075 154.852C60.6949 152.406 56.7418 149.578 56.5504 148.455C56.359 147.323 52.7804 132.64 52.0314 127C51.2741 121.352 49.0188 109.871 47.7039 104.605C46.389 99.3311 41.87 92.3681 40.9213 91.0537" fill="#0C1C2B"/>
<path d="M15.2223 117.841C15.2223 117.841 17.2196 120.827 19.3501 126.809C21.4889 132.79 42.2695 172.78 45.5484 174.768C48.8191 176.764 93.3845 183.877 93.3845 183.877C93.3845 183.877 96.2307 177.754 96.9464 172.78C97.6621 167.805 95.3818 162.389 95.3818 162.389C95.3818 162.389 66.7201 157.298 63.7075 154.852C60.6949 152.406 56.7418 149.578 56.5504 148.455C56.359 147.323 52.7804 132.64 52.0314 127C51.2741 121.352 49.0188 109.871 47.7039 104.605C46.389 99.3311 41.87 92.3681 40.9213 91.0537" stroke="black" stroke-width="2" stroke-linecap="round" stroke-linejoin="round"/>
<path d="M112.609 219.84C112.609 219.84 118.21 217.004 118.851 213.302" stroke="black" stroke-width="2" stroke-miterlimit="10" stroke-linecap="round"/>
</svg>
