<svg width="284" height="282" viewBox="0 0 284 282" fill="none" xmlns="http://www.w3.org/2000/svg">
<path d="M216.803 36.0981L216.725 42.8541C216.725 42.8541 190.811 42.1063 189.536 41.4301C188.261 40.7538 188.411 39.7004 188.333 39.2517C188.255 38.8031 188.255 32.3461 188.255 32.3461L185.926 30.0183L191.41 24.6147C191.41 24.6147 190.583 20.7133 191.032 19.5103C191.481 18.3074 196.587 11.3237 196.587 11.3237C196.587 11.3237 212.133 15.1537 213.564 18.8341C214.995 22.5079 216.803 36.0981 216.803 36.0981Z" fill="white"/>
<path d="M254.484 259.399C251.014 259.399 248.201 256.586 248.201 253.117C248.201 249.648 251.014 246.836 254.484 246.836C257.954 246.836 260.768 249.648 260.768 253.117C260.768 256.586 257.954 259.399 254.484 259.399Z" fill="white" stroke="black" stroke-width="2" stroke-miterlimit="10" stroke-linecap="round" stroke-linejoin="round"/>
<path d="M251.602 259.399C248.132 259.399 245.319 256.586 245.319 253.117C245.319 249.648 248.132 246.836 251.602 246.836C255.073 246.836 257.886 249.648 257.886 253.117C257.886 256.586 255.073 259.399 251.602 259.399Z" fill="white" stroke="black" stroke-width="2" stroke-miterlimit="10" stroke-linecap="round" stroke-linejoin="round"/>
<path d="M156.871 268.236C153.4 268.236 150.587 265.423 150.587 261.954C150.587 258.485 153.4 255.673 156.871 255.673C160.341 255.673 163.154 258.485 163.154 261.954C163.154 265.423 160.341 268.236 156.871 268.236Z" fill="white" stroke="black" stroke-width="2" stroke-miterlimit="10" stroke-linecap="round" stroke-linejoin="round"/>
<path d="M153.982 268.236C150.512 268.236 147.699 265.423 147.699 261.954C147.699 258.485 150.512 255.673 153.982 255.673C157.453 255.673 160.266 258.485 160.266 261.954C160.266 265.423 157.453 268.236 153.982 268.236Z" fill="white" stroke="black" stroke-width="2" stroke-miterlimit="10" stroke-linecap="round" stroke-linejoin="round"/>
<path d="M57.3448 254.178L56.0048 281H138.84L133.474 261.89L131.061 254.178H57.3448Z" fill="white" stroke="black" stroke-width="2" stroke-miterlimit="10" stroke-linecap="round" stroke-linejoin="round"/>
<path d="M80.1495 136.165H107.651V267.586H80.1495V136.165Z" fill="white" stroke="black" stroke-width="2" stroke-miterlimit="10" stroke-linecap="round" stroke-linejoin="round"/>
<path d="M132.446 257.364H150.385L148.857 239.358L132.446 240.002V257.364Z" fill="white" stroke="black" stroke-width="2" stroke-miterlimit="10" stroke-linecap="round" stroke-linejoin="round"/>
<path d="M210.13 187.833H218.117V222.511H210.13V187.833Z" fill="white" stroke="black" stroke-width="2" stroke-miterlimit="10" stroke-linecap="round" stroke-linejoin="round"/>
<path d="M208.504 221.054H220.166V225.137L276.899 255.166V261.434H272.814V257.936L217.688 237.967L210.397 267.559H207.483L208.94 236.946L157.463 252.981V255.894H152.064V250.503L208.504 224.552V221.054Z" fill="white" stroke="black" stroke-width="2" stroke-miterlimit="10" stroke-linecap="round" stroke-linejoin="round"/>
<path d="M210.897 278.62C207.427 278.62 204.614 275.808 204.614 272.339C204.614 268.87 207.427 266.058 210.897 266.058C214.367 266.058 217.181 268.87 217.181 272.339C217.181 275.808 214.367 278.62 210.897 278.62Z" fill="white" stroke="black" stroke-width="2" stroke-miterlimit="10" stroke-linecap="round" stroke-linejoin="round"/>
<path d="M208.009 278.62C204.539 278.62 201.726 275.808 201.726 272.339C201.726 268.87 204.539 266.058 208.009 266.058C211.479 266.058 214.292 268.87 214.292 272.339C214.292 275.808 211.479 278.62 208.009 278.62Z" fill="white" stroke="black" stroke-width="2" stroke-miterlimit="10" stroke-linecap="round" stroke-linejoin="round"/>
<path d="M187.299 259.399C183.829 259.399 181.016 256.586 181.016 253.117C181.016 249.648 183.829 246.836 187.299 246.836C190.769 246.836 193.582 249.648 193.582 253.117C193.582 256.586 190.769 259.399 187.299 259.399Z" fill="white" stroke="black" stroke-width="2" stroke-miterlimit="10" stroke-linecap="round" stroke-linejoin="round"/>
<path d="M184.411 259.399C180.94 259.399 178.127 256.586 178.127 253.117C178.127 249.648 180.94 246.836 184.411 246.836C187.881 246.836 190.694 249.648 190.694 253.117C190.694 256.586 187.881 259.399 184.411 259.399Z" fill="white" stroke="black" stroke-width="2" stroke-miterlimit="10" stroke-linecap="round" stroke-linejoin="round"/>
<path d="M164.722 192.034H234.099C241.417 192.034 247.342 186.103 247.342 178.795C247.342 171.479 241.41 165.556 234.099 165.556H164.722C157.404 165.556 151.478 171.486 151.478 178.795C151.478 186.103 157.411 192.034 164.722 192.034Z" fill="white" stroke="black" stroke-width="2" stroke-linecap="round" stroke-linejoin="round"/>
<path d="M276.717 272.027C273.246 272.027 270.433 269.214 270.433 265.745C270.433 262.276 273.246 259.464 276.717 259.464C280.187 259.464 283 262.276 283 265.745C283 269.214 280.187 272.027 276.717 272.027Z" fill="white" stroke="black" stroke-width="2" stroke-miterlimit="10" stroke-linecap="round" stroke-linejoin="round"/>
<path d="M273.836 272.027C270.366 272.027 267.553 269.214 267.553 265.745C267.553 262.276 270.366 259.464 273.836 259.464C277.306 259.464 280.119 262.276 280.119 265.745C280.119 269.214 277.306 272.027 273.836 272.027Z" fill="white" stroke="black" stroke-width="2" stroke-miterlimit="10" stroke-linecap="round" stroke-linejoin="round"/>
<path d="M180.417 139.149C180.417 139.149 135.158 146.828 124.706 151.725C114.246 156.627 117.193 166.589 117.193 183.411C117.193 200.233 118.988 240.411 118.988 240.411C118.988 240.411 127.158 244.332 134.183 244.658C141.208 244.983 152.974 242.863 152.974 242.863C152.974 242.863 150.522 207.418 149.872 198.601C149.221 189.783 147.582 178.346 148.076 177.37C148.564 176.388 219.874 179.412 227.406 173.846C237.299 166.544 236.629 155.646 231.887 140.618C227.146 125.591 180.417 139.149 180.417 139.149Z" fill="#0C1C2B" stroke="black" stroke-width="2" stroke-miterlimit="10" stroke-linecap="round" stroke-linejoin="round"/>
<path d="M1.90002 146.178H175.376V151.38H1.90002V146.178Z" fill="white" stroke="black" stroke-width="2" stroke-miterlimit="10" stroke-linecap="round" stroke-linejoin="round"/>
<path d="M1.89989 146.179L19.0328 113.66C19.0328 113.66 156.948 112.795 156.948 113.66C156.948 114.525 175.382 146.179 175.382 146.179H1.89989Z" fill="white" stroke="black" stroke-width="2" stroke-miterlimit="10" stroke-linecap="round" stroke-linejoin="round"/>
<path d="M20 124L23.7528 117.082C23.7528 117.082 53.9622 116.898 53.9622 117.082C53.9622 117.266 58 124 58 124H20Z" fill="white" stroke="black" stroke-width="2" stroke-miterlimit="10" stroke-linecap="round" stroke-linejoin="round"/>
<path d="M30 136L33.7528 129.082C33.7528 129.082 63.9622 128.898 63.9622 129.082C63.9622 129.266 68 136 68 136H30Z" fill="white" stroke="black" stroke-width="2" stroke-miterlimit="10" stroke-linecap="round" stroke-linejoin="round"/>
<path d="M61 126L64.7528 119.082C64.7528 119.082 94.9622 118.898 94.9622 119.082C94.9622 119.266 99 126 99 126H61Z" fill="white" stroke="black" stroke-width="2" stroke-miterlimit="10" stroke-linecap="round" stroke-linejoin="round"/>
<path d="M20 121L23.7528 114.082C23.7528 114.082 53.9622 113.898 53.9622 114.082C53.9622 114.266 58 121 58 121H20Z" fill="white" stroke="black" stroke-width="2" stroke-miterlimit="10" stroke-linecap="round" stroke-linejoin="round"/>
<path d="M30 133L33.7528 126.082C33.7528 126.082 63.9622 125.898 63.9622 126.082C63.9622 126.266 68 133 68 133H30Z" fill="white" stroke="black" stroke-width="2" stroke-miterlimit="10" stroke-linecap="round" stroke-linejoin="round"/>
<path d="M61 123L64.7528 116.082C64.7528 116.082 94.9622 115.898 94.9622 116.082C94.9622 116.266 99 123 99 123H61Z" fill="white" stroke="black" stroke-width="2" stroke-miterlimit="10" stroke-linecap="round" stroke-linejoin="round"/>
<path d="M20 118L23.7528 111.082C23.7528 111.082 53.9622 110.898 53.9622 111.082C53.9622 111.266 58 118 58 118H20Z" fill="white" stroke="black" stroke-width="2" stroke-miterlimit="10" stroke-linecap="round" stroke-linejoin="round"/>
<path d="M30 130L33.7528 123.082C33.7528 123.082 63.9622 122.898 63.9622 123.082C63.9622 123.266 68 130 68 130H30Z" fill="white" stroke="black" stroke-width="2" stroke-miterlimit="10" stroke-linecap="round" stroke-linejoin="round"/>
<path d="M61 120L64.7528 113.082C64.7528 113.082 94.9622 112.898 94.9622 113.082C94.9622 113.266 99 120 99 120H61Z" fill="white" stroke="black" stroke-width="2" stroke-miterlimit="10" stroke-linecap="round" stroke-linejoin="round"/>
<path d="M20 115L23.7528 108.082C23.7528 108.082 53.9622 107.898 53.9622 108.082C53.9622 108.266 58 115 58 115H20Z" fill="white" stroke="black" stroke-width="2" stroke-miterlimit="10" stroke-linecap="round" stroke-linejoin="round"/>
<path d="M30 127L33.7528 120.082C33.7528 120.082 63.9622 119.898 63.9622 120.082C63.9622 120.266 68 127 68 127H30Z" fill="white" stroke="black" stroke-width="2" stroke-miterlimit="10" stroke-linecap="round" stroke-linejoin="round"/>
<path d="M61 117L64.7528 110.082C64.7528 110.082 94.9622 109.898 94.9622 110.082C94.9622 110.266 99 117 99 117H61Z" fill="white" stroke="black" stroke-width="2" stroke-miterlimit="10" stroke-linecap="round" stroke-linejoin="round"/>
<path d="M20 112L23.7528 105.082C23.7528 105.082 53.9622 104.898 53.9622 105.082C53.9622 105.266 58 112 58 112H20Z" fill="white" stroke="black" stroke-width="2" stroke-miterlimit="10" stroke-linecap="round" stroke-linejoin="round"/>
<path d="M30 124L33.7528 117.082C33.7528 117.082 63.9622 116.898 63.9622 117.082C63.9622 117.266 68 124 68 124H30Z" fill="white" stroke="black" stroke-width="2" stroke-miterlimit="10" stroke-linecap="round" stroke-linejoin="round"/>
<path d="M61 114L64.7528 107.082C64.7528 107.082 94.9622 106.898 94.9622 107.082C94.9622 107.266 99 114 99 114H61Z" fill="white" stroke="black" stroke-width="2" stroke-miterlimit="10" stroke-linecap="round" stroke-linejoin="round"/>
<path d="M93 141L96.7528 134.082C96.7528 134.082 126.962 133.898 126.962 134.082C126.962 134.266 131 141 131 141H93Z" fill="white" stroke="black" stroke-width="2" stroke-miterlimit="10" stroke-linecap="round" stroke-linejoin="round"/>
<path d="M20 109L23.7528 102.082C23.7528 102.082 53.9622 101.898 53.9622 102.082C53.9622 102.266 58 109 58 109H20Z" fill="white" stroke="black" stroke-width="2" stroke-miterlimit="10" stroke-linecap="round" stroke-linejoin="round"/>
<path d="M30 121L33.7528 114.082C33.7528 114.082 63.9622 113.898 63.9622 114.082C63.9622 114.266 68 121 68 121H30Z" fill="white" stroke="black" stroke-width="2" stroke-miterlimit="10" stroke-linecap="round" stroke-linejoin="round"/>
<path d="M61 111L64.7528 104.082C64.7528 104.082 94.9622 103.898 94.9622 104.082C94.9622 104.266 99 111 99 111H61Z" fill="white" stroke="black" stroke-width="2" stroke-miterlimit="10" stroke-linecap="round" stroke-linejoin="round"/>
<path d="M93 138L96.7528 131.082C96.7528 131.082 126.962 130.898 126.962 131.082C126.962 131.266 131 138 131 138H93Z" fill="white" stroke="black" stroke-width="2" stroke-miterlimit="10" stroke-linecap="round" stroke-linejoin="round"/>
<path d="M20 106L23.7528 99.0818C23.7528 99.0818 53.9622 98.8978 53.9622 99.0818C53.9622 99.2658 58 106 58 106H20Z" fill="white" stroke="black" stroke-width="2" stroke-miterlimit="10" stroke-linecap="round" stroke-linejoin="round"/>
<path d="M30 118L33.7528 111.082C33.7528 111.082 63.9622 110.898 63.9622 111.082C63.9622 111.266 68 118 68 118H30Z" fill="white" stroke="black" stroke-width="2" stroke-miterlimit="10" stroke-linecap="round" stroke-linejoin="round"/>
<path d="M61 108L64.7528 101.082C64.7528 101.082 94.9622 100.898 94.9622 101.082C94.9622 101.266 99 108 99 108H61Z" fill="white" stroke="black" stroke-width="2" stroke-miterlimit="10" stroke-linecap="round" stroke-linejoin="round"/>
<path d="M93 135L96.7528 128.082C96.7528 128.082 126.962 127.898 126.962 128.082C126.962 128.266 131 135 131 135H93Z" fill="white" stroke="black" stroke-width="2" stroke-miterlimit="10" stroke-linecap="round" stroke-linejoin="round"/>
<path d="M20 103L23.7528 96.0818C23.7528 96.0818 53.9622 95.8978 53.9622 96.0818C53.9622 96.2658 58 103 58 103H20Z" fill="white" stroke="black" stroke-width="2" stroke-miterlimit="10" stroke-linecap="round" stroke-linejoin="round"/>
<path d="M30 115L33.7528 108.082C33.7528 108.082 63.9622 107.898 63.9622 108.082C63.9622 108.266 68 115 68 115H30Z" fill="white" stroke="black" stroke-width="2" stroke-miterlimit="10" stroke-linecap="round" stroke-linejoin="round"/>
<path d="M61 105L64.7528 98.0818C64.7528 98.0818 94.9622 97.8978 94.9622 98.0818C94.9622 98.2658 99 105 99 105H61Z" fill="white" stroke="black" stroke-width="2" stroke-miterlimit="10" stroke-linecap="round" stroke-linejoin="round"/>
<path d="M93 132L96.7528 125.082C96.7528 125.082 126.962 124.898 126.962 125.082C126.962 125.266 131 132 131 132H93Z" fill="white" stroke="black" stroke-width="2" stroke-miterlimit="10" stroke-linecap="round" stroke-linejoin="round"/>
<path d="M42 99.5C42 100.661 40.6814 102 38.5 102C36.3186 102 35 100.661 35 99.5C35 98.3386 36.3186 97 38.5 97C40.6814 97 42 98.3386 42 99.5Z" stroke="black" stroke-width="2"/>
<path d="M52 111.5C52 112.661 50.6814 114 48.5 114C46.3186 114 45 112.661 45 111.5C45 110.339 46.3186 109 48.5 109C50.6814 109 52 110.339 52 111.5Z" stroke="black" stroke-width="2"/>
<path d="M83 101.5C83 102.661 81.6814 104 79.5 104C77.3186 104 76 102.661 76 101.5C76 100.339 77.3186 99 79.5 99C81.6814 99 83 100.339 83 101.5Z" stroke="black" stroke-width="2"/>
<path d="M115 128.5C115 129.661 113.681 131 111.5 131C109.319 131 108 129.661 108 128.5C108 127.339 109.319 126 111.5 126C113.681 126 115 127.339 115 128.5Z" stroke="black" stroke-width="2"/>
<path d="M216.888 36.7354L216.784 39.8435" stroke="black" stroke-width="2" stroke-linecap="round" stroke-linejoin="round"/>
<path d="M196.002 12.0327C196.002 12.0327 191.39 17.9369 191.104 19.9527C190.818 21.9685 191.247 24.706 191.247 24.706L186.063 30.181L188.366 32.4829C188.366 32.4829 187.5 35.3635 188.079 38.2441C189.839 47 198 43 198 43L200.5 49" stroke="black" stroke-width="2" stroke-linecap="round" stroke-linejoin="round"/>
<path d="M194.577 20.928C193.055 20.2452 191.104 19.9526 191.104 19.9526" stroke="black" stroke-width="2" stroke-linecap="round" stroke-linejoin="round"/>
<path d="M188.183 36.4688C188.183 36.4688 189.933 37.002 191.793 36.8069" stroke="black" stroke-width="2" stroke-linecap="round" stroke-linejoin="round"/>
<path d="M193.549 24.7648C193.647 24.8623 193.309 26.0653 192.398 26.1108C191.487 26.1563 191.247 24.7063 191.247 24.7063C193.211 23.4708 195.013 26.1043 195.013 26.1043" stroke="black" stroke-width="2" stroke-linecap="round" stroke-linejoin="round"/>
<path d="M208.198 28.0678C208.198 28.0678 205.42 26.0261 206.656 23.7892C207.983 21.3963 207.352 18.9839 206.708 18.1841C204.978 16.0383 196.242 18.3272 194.096 12.8846C192.047 7.69566 196.639 0.542969 196.639 0.542969C196.639 0.542969 199.618 5.19221 207.951 4.79557C212.718 4.57448 222.95 7.44206 225.871 15.1605C228.251 21.4483 227.614 26.2992 224.999 29.4919C222.384 32.6846 219.769 35.7862 219.281 36.6576C218.8 37.5289 216.667 38.0166 215.307 37.2363C213.948 36.456 211.652 34.6938 212.035 33.725C212.426 32.7561 214.195 30.6233 213.779 29.1472C213.102 26.7478 208.198 28.0678 208.198 28.0678Z" fill="black"/>
<path d="M145.221 111.56C145.221 111.56 125.916 111.683 122.241 111.56C118.566 111.436 115.203 114.297 113.212 115.858C111.222 117.412 108.542 119.844 108.542 119.844C108.542 119.844 109.85 120.403 111.281 120.403C112.712 120.403 117.635 118.283 118.566 117.847C119.502 117.412 117.941 119.031 118.501 119.902C119.06 120.773 121.675 120.897 123.984 120.708C126.286 120.52 132.394 120.338 135.068 120.396C137.747 120.461 140.239 119.46 141.982 119.213C143.725 118.966 144.909 119.46 145.033 119.278C145.156 119.096 145.221 111.56 145.221 111.56Z" fill="white" stroke="black" stroke-width="2" stroke-miterlimit="10" stroke-linecap="round" stroke-linejoin="round"/>
<path d="M118.565 117.848C118.565 117.848 119.873 116.976 123.483 116.729C127.093 116.482 128.465 116.17 128.465 116.17" fill="white"/>
<path d="M118.565 117.848C118.565 117.848 119.873 116.976 123.483 116.729C127.093 116.482 128.465 116.17 128.465 116.17" stroke="black" stroke-width="2" stroke-miterlimit="10" stroke-linecap="round" stroke-linejoin="round"/>
<path d="M172.748 105.343C172.748 105.908 143.907 109.595 143.907 109.595L143.341 122.724L173.659 124.727L172.748 105.343Z" fill="#0C1C2B" stroke="black" stroke-width="2" stroke-miterlimit="10" stroke-linecap="round" stroke-linejoin="round"/>
<path d="M205.303 183.958C207.626 183.958 209.505 182.078 209.505 179.757V149.247C209.505 146.926 207.626 145.047 205.303 145.047C202.981 145.047 201.102 146.926 201.102 149.247V179.757C201.108 182.078 202.988 183.958 205.303 183.958Z" fill="white" stroke="black" stroke-width="2" stroke-miterlimit="10" stroke-linecap="round" stroke-linejoin="round"/>
<path d="M185.53 147.875H223.106C224.908 147.875 226.372 146.412 226.372 144.611C226.372 142.81 224.908 141.347 223.106 141.347H185.53C183.728 141.347 182.264 142.81 182.264 144.611C182.271 146.419 183.728 147.875 185.53 147.875Z" fill="white" stroke="black" stroke-width="2" stroke-linecap="round" stroke-linejoin="round"/>
<path d="M150.249 252.129C150.249 252.129 153.287 256.174 153.43 261.089C153.573 266.005 153.287 269.614 153.287 269.614L139.699 270.336L138.684 268.6C138.684 268.6 133.48 269.465 128.563 270.043C123.645 270.622 111.794 270.043 106.155 268.307C100.515 266.571 96.8988 265.414 96.4695 263.827C96.0337 262.234 97.1915 258.768 97.1915 258.768C97.1915 258.768 107.02 258.911 112.08 258.332C117.141 257.754 126.826 250.959 127.984 249.951C129.142 248.943 131.451 246.771 132.752 248.071C134.053 249.372 137.376 251.394 137.376 252.695C137.376 253.995 138.677 254.138 141.136 254.431C143.601 254.73 150.249 252.129 150.249 252.129Z" fill="white" stroke="black" stroke-width="2" stroke-miterlimit="10" stroke-linecap="round" stroke-linejoin="round"/>
<path d="M130.943 255.27C130.943 255.27 128.153 252.064 126.969 251.531" stroke="black" stroke-width="2" stroke-linecap="round" stroke-linejoin="round"/>
<path d="M127.262 257.585C127.262 257.585 124.471 254.379 123.287 253.846" stroke="black" stroke-width="2" stroke-linecap="round" stroke-linejoin="round"/>
<path d="M123.639 259.366C123.639 259.366 120.848 256.161 119.664 255.627" stroke="black" stroke-width="2" stroke-linecap="round" stroke-linejoin="round"/>
<path d="M239.953 171.752C243.934 171.752 247.167 168.527 247.167 164.541V65.3982C247.167 61.4187 243.94 58.187 239.953 58.187C235.972 58.187 232.739 61.4122 232.739 65.3982V164.541C232.746 168.521 235.972 171.752 239.953 171.752Z" fill="white" stroke="black" stroke-width="2" stroke-linecap="round" stroke-linejoin="round"/>
<path d="M149.699 114.652C149.699 114.652 144.102 117.337 140.513 117.162C136.923 116.988 132.677 116.884 129.966 117.181C127.255 117.477 122.312 116.695 121.506 117.366C120.706 118.038 121.862 119.844 122.978 120.383C124.095 120.922 127.066 121.07 127.066 121.07C127.066 121.07 114.785 131.499 114.006 133.306C113.227 135.113 114.143 136.346 114.143 136.346C114.143 136.346 112.584 138.488 113.022 140.06C113.459 141.632 115.741 141.15 115.741 141.15C115.741 141.15 116.07 142.547 117.242 143.08C118.413 143.613 119.412 143.026 119.412 143.026C119.412 143.026 121.03 143.911 122.17 143.972C123.309 144.033 135.09 138.159 138.81 134.812C142.53 131.465 144.641 128.694 146.765 127.634C148.89 126.567 155.718 123.719 155.718 123.719" fill="white"/>
<path d="M149.699 114.652C149.699 114.652 144.102 117.337 140.513 117.162C136.923 116.988 132.677 116.884 129.966 117.181C127.255 117.477 122.312 116.695 121.506 117.366C120.706 118.038 121.862 119.844 122.978 120.383C124.095 120.922 127.066 121.07 127.066 121.07C127.066 121.07 114.785 131.499 114.006 133.306C113.227 135.113 114.143 136.346 114.143 136.346C114.143 136.346 112.584 138.488 113.022 140.06C113.459 141.632 115.741 141.15 115.741 141.15C115.741 141.15 116.07 142.547 117.242 143.08C118.413 143.613 119.412 143.026 119.412 143.026C119.412 143.026 121.03 143.911 122.17 143.972C123.309 144.033 135.09 138.159 138.81 134.812C142.53 131.465 144.641 128.694 146.765 127.634C148.89 126.567 155.718 123.719 155.718 123.719" stroke="black" stroke-width="2" stroke-linecap="round" stroke-linejoin="round"/>
<path d="M114.142 136.346L124.984 128.453" stroke="black" stroke-width="2" stroke-linecap="round" stroke-linejoin="round"/>
<path d="M115.69 141.064L126.532 133.171" stroke="black" stroke-width="2" stroke-linecap="round" stroke-linejoin="round"/>
<path d="M119.233 143.148L130.076 135.249" stroke="black" stroke-width="2" stroke-linecap="round" stroke-linejoin="round"/>
<path d="M155.978 110.325L150.254 113.601L159.066 126.526L164.314 123.865" fill="#0C1C2B"/>
<path d="M155.978 110.325L150.254 113.601L159.066 126.526L164.314 123.865" stroke="black" stroke-width="2" stroke-linecap="round" stroke-linejoin="round"/>
<path d="M195.791 56.3157C195.791 56.3157 192.738 59.2174 191.243 65.1478C189.747 71.0846 184.277 78.9026 181.935 85.6304C179.594 92.3517 175.807 104.574 174.828 109.975C173.849 115.376 171.129 131.014 171.129 131.014C171.129 131.014 179.594 139.7 183.32 144.5C187.046 149.301 190.279 153.293 197.334 156.573C204.388 159.853 209.208 161.953 214.996 161.04C220.79 160.128 226.843 155.961 226.843 155.961C226.843 155.961 229.265 126.101 229.499 114.777C229.733 103.453 232.668 77.8423 231.829 70.2641C230.988 62.6924 227.489 52.5408 224.573 48.4367C221.657 44.3326 221.084 44.115 219.378 43.4508C217.671 42.7996 195.791 56.3157 195.791 56.3157Z" fill="#0C1C2B" stroke="black" stroke-width="2" stroke-linecap="round" stroke-linejoin="round"/>
<path d="M217.677 39.0907C217.716 38.7788 217.422 35.2498 217.422 35.2498L193.524 54.3462C193.524 54.3462 197.092 64.6385 197.027 64.3135C196.962 63.9885 217.677 39.0907 217.677 39.0907Z" fill="white" stroke="black" stroke-width="2" stroke-miterlimit="10" stroke-linecap="round" stroke-linejoin="round"/>
<path d="M217.677 39.0907L221.083 44.8079C221.083 44.8079 215.273 48.0945 209.569 54.675C203.871 61.2565 194.727 73.3304 192.582 77.7133C190.444 82.097 189.029 84.8823 189.029 84.8823C189.029 84.8823 195.066 68.0793 198.607 60.1695C202.148 52.2597 217.677 39.0907 217.677 39.0907Z" fill="#0C1C2B" stroke="black" stroke-width="2" stroke-linecap="round" stroke-linejoin="round"/>
<path d="M167 126L157 110.5L192 82L205 66.5L224 67L222.5 71L211.5 87L199.5 99L184.5 113L167 126Z" fill="#0C1C2B"/>
<path d="M156.5 110L167 126.5C183.333 115.167 219.8 89 227 67" stroke="black" stroke-width="2" stroke-linecap="round" stroke-linejoin="round"/>
<path d="M156.5 110C183.5 92 199 78.2 207 63" stroke="black" stroke-width="2" stroke-linecap="round" stroke-linejoin="round"/>
</svg>
