<?xml version="1.0" encoding="utf-8"?><svg viewBox="0 0 428 341" xmlns="http://www.w3.org/2000/svg" xmlns:xlink="http://www.w3.org/1999/xlink"><style>:root>svg{display:none}:root>svg:target{display:block}</style><svg fill="none" viewBox="0 0 61 70" id="audit" xmlns="http://www.w3.org/2000/svg"><path d="M60.02 47.178V64.6a5.4 5.4 0 01-5.4 5.4H5.65a5.4 5.4 0 01-5.4-5.4V5.4A5.4 5.4 0 015.65 0H44.69a5.4 5.4 0 015.4 5.4v28.876a6.253 6.253 0 003.184 5.448l3.561 2.006a6.253 6.253 0 013.184 5.449z" fill="#0C1C2B"/><path d="M10.333 70H5.65a5.4 5.4 0 01-5.4-5.4V5.4A5.4 5.4 0 015.65 0h4.683a5.399 5.399 0 00-5.398 5.4v59.2c0 2.983 2.416 5.4 5.398 5.4z" fill="#fff" fill-opacity=".2"/><path d="M13.425 12.662a1.211 1.211 0 00-1.136-.782c-.496 0-.937.298-1.124.756l-.01.024-2.637 6.925a1.056 1.056 0 101.974.752l.398-1.044h2.78l.392 1.041a1.057 1.057 0 101.977-.746l-2.614-6.926zm-1.73 4.518l.591-1.553.586 1.553h-1.178zM34.604 11.88c-.583 0-1.056.473-1.056 1.057v7.024a1.056 1.056 0 102.112 0v-7.024c0-.583-.472-1.056-1.056-1.056zM28.433 11.88h-1.99a1.056 1.056 0 00-1.056 1.059l.014 7.026a1.057 1.057 0 001.056 1.052h.004c.06 0 1.48-.005 2.048-.015 2.212-.039 3.816-1.953 3.816-4.553 0-2.733-1.564-4.568-3.892-4.568zm.04 7.01l-.963.01-.009-4.907h.932c1.651 0 1.78 1.88 1.78 2.456 0 1.2-.538 2.42-1.74 2.44zM22.93 11.88c-.584 0-1.057.473-1.057 1.057v4.828c0 .303-.088.658-.743.987a1.48 1.48 0 01-.68.153h-.003c-.276 0-.514-.067-.728-.204-.512-.327-.614-.599-.614-.93v-4.834a1.056 1.056 0 10-2.113 0v4.833c0 1.125.535 2.037 1.59 2.71a3.411 3.411 0 001.862.537h.005c.584 0 1.133-.127 1.632-.378 1.228-.619 1.905-1.64 1.905-2.874v-4.828c0-.583-.474-1.056-1.057-1.056zM42.207 11.88h-3.88a1.056 1.056 0 100 2.113h.876v5.968a1.056 1.056 0 102.113 0v-5.968h.89a1.056 1.056 0 00.001-2.112zM39.954 25.498H11.758a1.056 1.056 0 110-2.113h28.196a1.056 1.056 0 110 2.113zM33.678 30.04H18.034a1.056 1.056 0 110-2.113h15.644a1.056 1.056 0 110 2.113z" fill="#fff"/></svg><svg fill="none" viewBox="0 0 428 274" id="laptop" xmlns="http://www.w3.org/2000/svg"><path d="M47.873 234.507h332.175V16.335H47.873v218.172z" fill="#0C1C2B" stroke="#0C1C2B" stroke-width="2" stroke-miterlimit="10"/><path d="M37.008 246.758V17.863a16.544 16.544 0 014.88-11.701 16.655 16.655 0 0111.747-4.845h320.65c4.406 0 8.631 1.743 11.748 4.845a16.546 16.546 0 014.88 11.7v228.896M37.008 272.682c-19.694 0-35.686-11.591-35.686-25.924h425.356c0 14.333-15.86 25.924-35.686 25.924H37.008z" stroke="#0C1C2B" stroke-width="2" stroke-miterlimit="10"/><path d="M258.661 246.758h-89.322v10.565h89.322v-10.565z" stroke="#0C1C2B" stroke-width="2" stroke-miterlimit="10"/><path d="M287.765 57.619H140.261c-11.358 0-20.566 9.177-20.566 20.497v109.442c0 11.321 9.208 20.498 20.566 20.498h147.504c11.359 0 20.566-9.177 20.566-20.498V78.116c0-11.32-9.207-20.497-20.566-20.497z" fill="#fff"/><path d="M279.888 158.472H148.112a4.328 4.328 0 00-4.335 4.321v24.818a4.328 4.328 0 004.335 4.321h131.776a4.328 4.328 0 004.335-4.321v-24.818a4.328 4.328 0 00-4.335-4.321z" fill="#0C1C2B"/><path d="M143.777 91.764h115.175" stroke="#0C1C2B" stroke-width="2" stroke-miterlimit="10"/><path d="M172.848 181.195c2.205 0 3.825-1.53 3.825-3.78v-7.155h-3.165v6.75c0 1.02-.645 1.695-1.575 1.695a6.5 6.5 0 01-1.335-.15v2.34c.585.18 1.47.3 2.25.3zm11.076.03c3.585 0 6.015-2.175 6.015-5.595s-2.43-5.58-6.015-5.58c-3.6 0-6.03 2.16-6.03 5.58s2.43 5.595 6.03 5.595zm0-2.595c-1.695 0-2.865-1.185-2.865-3 0-1.8 1.17-3 2.865-3 1.695 0 2.85 1.2 2.85 3 0 1.815-1.155 3-2.85 3zm7.325 2.37h3.165v-10.74h-3.165V181zm4.878 0h2.955v-6.645h.15l3.525 6.645h3.39v-10.74h-2.955v6.66h-.15l-3.525-6.66h-3.39V181zm15.381 0h2.955v-6.645h.15l3.525 6.645h3.39v-10.74h-2.955v6.66h-.15l-3.525-6.66h-3.39V181zm17.343.225c3.585 0 6.015-2.175 6.015-5.595s-2.43-5.58-6.015-5.58c-3.6 0-6.03 2.16-6.03 5.58s2.43 5.595 6.03 5.595zm0-2.595c-1.695 0-2.865-1.185-2.865-3 0-1.8 1.17-3 2.865-3 1.695 0 2.85 1.2 2.85 3 0 1.815-1.155 3-2.85 3zm9.137 2.37h4.41l1.5-6.51h.15l1.5 6.51h4.41l2.895-10.74h-3.165l-1.995 7.875h-.15l-1.995-7.875h-3.15l-1.98 7.875h-.15l-2.01-7.875h-3.165l2.895 10.74zm16.78-3.72h1.395l.795-3.87v-3.15h-2.97v3.15l.78 3.87zm.69 3.885c.93 0 1.575-.63 1.575-1.515 0-.885-.645-1.515-1.575-1.515-.9 0-1.56.63-1.56 1.515 0 .885.66 1.515 1.56 1.515z" fill="#fff"/><path d="M143.777 114.896h130.612M143.777 138.027h103.226" stroke="#0C1C2B" stroke-width="2" stroke-miterlimit="10"/></svg><svg fill="none" viewBox="0 0 68 80" id="security" xmlns="http://www.w3.org/2000/svg"><path d="M67.55 14.549v22.35c0 20.355-13.822 38.103-33.566 43.101C14.271 75.019.449 57.254.449 36.899v-22.35C15.971 12.8 24.763 6.895 34 0c9.237 6.895 18.029 12.8 33.55 14.549z" fill="#0C1C2B" fill-opacity=".9"/><path d="M34 71.175A35.932 35.932 0 018.928 36.9V21.757C19.369 19.48 27.039 15.274 34 10.474c7.11 4.932 14.63 9.056 25.072 11.3v15.141c0 15.753-10.21 29.543-25.072 34.26z" fill="#0C1C2B"/><path d="M28.441 53.674l-8.264-8.264 4.19-4.206 4.074 4.058 15.192-15.175 4.19 4.19L28.44 53.673z" fill="#fff"/></svg><svg fill="none" viewBox="0 0 66 70" id="tax" xmlns="http://www.w3.org/2000/svg"><path d="M45.695.248H6.828v20.611h13.447l4.98 7.622h33.917V13.724L45.695.248z" fill="#0C1C2B" fill-opacity=".9"/><path d="M25.252 28.477l-4.98-7.618H.232v48.372h65.534V28.477H25.252z" fill="#0C1C2B"/><path d="M25.683 41.438H9.34v4.756h5.793v11.801h4.756v-11.8h5.793v-4.757zM56.659 41.653h-5.122l-2.317 4.033-2.317-4.033-5.122.001 4.695 8.17-4.695 8.172h5.122l2.317-4.033 2.317 4.032h5.122l-4.695-8.17 4.695-8.172zM36.049 57.995h4.756l-4.512-16.34h-7.195l-4.513 16.34h4.757l1.147-4.153h4.413l1.147 4.154zm-4.644-7.471l1.29-4.675 1.29 4.675h-2.58z" fill="#fff"/><path d="M36.293 41.654h-3.34v5.13l1.033 3.74h-1.032v3.318h1.948l1.147 4.154h4.756l-4.512-16.342z" fill="#fff"/></svg><svg fill="none" viewBox="0 0 284 282" id="worker-counting" xmlns="http://www.w3.org/2000/svg"><path d="M216.803 36.098l-.078 6.756s-25.914-.748-27.189-1.424c-1.275-.676-1.125-1.73-1.203-2.178-.078-.449-.078-6.906-.078-6.906l-2.329-2.328 5.484-5.403s-.827-3.902-.378-5.105c.449-1.203 5.555-8.186 5.555-8.186s15.546 3.83 16.977 7.51c1.431 3.674 3.239 17.264 3.239 17.264z" fill="#fff"/><path d="M254.484 259.399a6.282 6.282 0 110-12.563 6.283 6.283 0 016.284 6.281 6.284 6.284 0 01-6.284 6.282z" fill="#fff" stroke="#000" stroke-width="2" stroke-miterlimit="10" stroke-linecap="round" stroke-linejoin="round"/><path d="M251.602 259.399a6.282 6.282 0 110-12.563 6.282 6.282 0 110 12.563zM156.871 268.236a6.282 6.282 0 110-12.563 6.282 6.282 0 110 12.563z" fill="#fff" stroke="#000" stroke-width="2" stroke-miterlimit="10" stroke-linecap="round" stroke-linejoin="round"/><path d="M153.982 268.236a6.282 6.282 0 110-12.563 6.282 6.282 0 110 12.563zM57.345 254.178L56.005 281h82.835l-5.366-19.11-2.413-7.712H57.345z" fill="#fff" stroke="#000" stroke-width="2" stroke-miterlimit="10" stroke-linecap="round" stroke-linejoin="round"/><path d="M80.15 136.165h27.501v131.421H80.15V136.165zM132.446 257.364h17.939l-1.528-18.006-16.411.644v17.362zM210.13 187.833h7.987v34.678h-7.987v-34.678z" fill="#fff" stroke="#000" stroke-width="2" stroke-miterlimit="10" stroke-linecap="round" stroke-linejoin="round"/><path d="M208.504 221.054h11.662v4.083l56.733 30.029v6.268h-4.085v-3.498l-55.126-19.969-7.291 29.592h-2.914l1.457-30.613-51.477 16.035v2.913h-5.399v-5.391l56.44-25.951v-3.498z" fill="#fff" stroke="#000" stroke-width="2" stroke-miterlimit="10" stroke-linecap="round" stroke-linejoin="round"/><path d="M210.897 278.62a6.282 6.282 0 110-12.562 6.283 6.283 0 016.284 6.281 6.283 6.283 0 01-6.284 6.281z" fill="#fff" stroke="#000" stroke-width="2" stroke-miterlimit="10" stroke-linecap="round" stroke-linejoin="round"/><path d="M208.009 278.62a6.282 6.282 0 110-12.562 6.282 6.282 0 110 12.562zM187.299 259.399a6.282 6.282 0 110-12.563 6.282 6.282 0 110 12.563z" fill="#fff" stroke="#000" stroke-width="2" stroke-miterlimit="10" stroke-linecap="round" stroke-linejoin="round"/><path d="M184.411 259.399a6.282 6.282 0 110-12.563 6.282 6.282 0 110 12.563z" fill="#fff" stroke="#000" stroke-width="2" stroke-miterlimit="10" stroke-linecap="round" stroke-linejoin="round"/><path d="M164.722 192.034h69.377c7.318 0 13.243-5.931 13.243-13.239 0-7.316-5.932-13.239-13.243-13.239h-69.377c-7.318 0-13.244 5.93-13.244 13.239 0 7.308 5.933 13.239 13.244 13.239z" fill="#fff" stroke="#000" stroke-width="2" stroke-linecap="round" stroke-linejoin="round"/><path d="M276.717 272.027a6.282 6.282 0 110-12.563 6.282 6.282 0 110 12.563z" fill="#fff" stroke="#000" stroke-width="2" stroke-miterlimit="10" stroke-linecap="round" stroke-linejoin="round"/><path d="M273.836 272.027a6.282 6.282 0 110-12.563 6.282 6.282 0 110 12.563z" fill="#fff" stroke="#000" stroke-width="2" stroke-miterlimit="10" stroke-linecap="round" stroke-linejoin="round"/><path d="M180.417 139.149s-45.259 7.679-55.711 12.576c-10.46 4.902-7.513 14.864-7.513 31.686s1.795 57 1.795 57 8.17 3.921 15.195 4.247c7.025.325 18.791-1.795 18.791-1.795s-2.452-35.445-3.102-44.262c-.651-8.818-2.29-20.255-1.796-21.231.488-.982 71.798 2.042 79.33-3.524 9.893-7.302 9.223-18.2 4.481-33.228-4.741-15.027-51.47-1.469-51.47-1.469z" fill="#0C1C2B" stroke="#000" stroke-width="2" stroke-miterlimit="10" stroke-linecap="round" stroke-linejoin="round"/><path d="M1.9 146.178h173.476v5.202H1.9v-5.202z" fill="#fff" stroke="#000" stroke-width="2" stroke-miterlimit="10" stroke-linecap="round" stroke-linejoin="round"/><path d="M1.9 146.179l17.133-32.519s137.915-.865 137.915 0 18.434 32.519 18.434 32.519H1.9z" fill="#fff" stroke="#000" stroke-width="2" stroke-miterlimit="10" stroke-linecap="round" stroke-linejoin="round"/><path d="M20 124l3.753-6.918s30.21-.184 30.21 0S58 124 58 124H20zM30 136l3.753-6.918s30.21-.184 30.21 0S68 136 68 136H30zM61 126l3.753-6.918s30.21-.184 30.21 0S99 126 99 126H61z" fill="#fff" stroke="#000" stroke-width="2" stroke-miterlimit="10" stroke-linecap="round" stroke-linejoin="round"/><path d="M20 121l3.753-6.918s30.21-.184 30.21 0S58 121 58 121H20zM30 133l3.753-6.918s30.21-.184 30.21 0S68 133 68 133H30zM61 123l3.753-6.918s30.21-.184 30.21 0S99 123 99 123H61z" fill="#fff" stroke="#000" stroke-width="2" stroke-miterlimit="10" stroke-linecap="round" stroke-linejoin="round"/><path d="M20 118l3.753-6.918s30.21-.184 30.21 0S58 118 58 118H20zM30 130l3.753-6.918s30.21-.184 30.21 0S68 130 68 130H30zM61 120l3.753-6.918s30.21-.184 30.21 0S99 120 99 120H61z" fill="#fff" stroke="#000" stroke-width="2" stroke-miterlimit="10" stroke-linecap="round" stroke-linejoin="round"/><path d="M20 115l3.753-6.918s30.21-.184 30.21 0S58 115 58 115H20zM30 127l3.753-6.918s30.21-.184 30.21 0S68 127 68 127H30zM61 117l3.753-6.918s30.21-.184 30.21 0S99 117 99 117H61z" fill="#fff" stroke="#000" stroke-width="2" stroke-miterlimit="10" stroke-linecap="round" stroke-linejoin="round"/><path d="M20 112l3.753-6.918s30.21-.184 30.21 0S58 112 58 112H20zM30 124l3.753-6.918s30.21-.184 30.21 0S68 124 68 124H30zM61 114l3.753-6.918s30.21-.184 30.21 0S99 114 99 114H61zM93 141l3.753-6.918s30.209-.184 30.209 0S131 141 131 141H93z" fill="#fff" stroke="#000" stroke-width="2" stroke-miterlimit="10" stroke-linecap="round" stroke-linejoin="round"/><path d="M20 109l3.753-6.918s30.21-.184 30.21 0S58 109 58 109H20zM30 121l3.753-6.918s30.21-.184 30.21 0S68 121 68 121H30zM61 111l3.753-6.918s30.21-.184 30.21 0S99 111 99 111H61zM93 138l3.753-6.918s30.209-.184 30.209 0S131 138 131 138H93z" fill="#fff" stroke="#000" stroke-width="2" stroke-miterlimit="10" stroke-linecap="round" stroke-linejoin="round"/><path d="M20 106l3.753-6.918s30.21-.184 30.21 0S58 106 58 106H20zM30 118l3.753-6.918s30.21-.184 30.21 0S68 118 68 118H30zM61 108l3.753-6.918s30.21-.184 30.21 0S99 108 99 108H61zM93 135l3.753-6.918s30.209-.184 30.209 0S131 135 131 135H93z" fill="#fff" stroke="#000" stroke-width="2" stroke-miterlimit="10" stroke-linecap="round" stroke-linejoin="round"/><path d="M20 103l3.753-6.918s30.21-.184 30.21 0S58 103 58 103H20zM30 115l3.753-6.918s30.21-.184 30.21 0S68 115 68 115H30zM61 105l3.753-6.918s30.21-.184 30.21 0S99 105 99 105H61zM93 132l3.753-6.918s30.209-.184 30.209 0S131 132 131 132H93z" fill="#fff" stroke="#000" stroke-width="2" stroke-miterlimit="10" stroke-linecap="round" stroke-linejoin="round"/><path d="M42 99.5c0 1.161-1.319 2.5-3.5 2.5s-3.5-1.339-3.5-2.5 1.319-2.5 3.5-2.5 3.5 1.339 3.5 2.5zM52 111.5c0 1.161-1.319 2.5-3.5 2.5s-3.5-1.339-3.5-2.5 1.319-2.5 3.5-2.5 3.5 1.339 3.5 2.5zM83 101.5c0 1.161-1.319 2.5-3.5 2.5s-3.5-1.339-3.5-2.5 1.319-2.5 3.5-2.5 3.5 1.339 3.5 2.5zM115 128.5c0 1.161-1.319 2.5-3.5 2.5s-3.5-1.339-3.5-2.5 1.319-2.5 3.5-2.5 3.5 1.339 3.5 2.5z" stroke="#000" stroke-width="2"/><path d="M216.888 36.735l-.104 3.108M196.002 12.033s-4.612 5.904-4.898 7.92c-.286 2.015.143 4.753.143 4.753l-5.184 5.475 2.303 2.302s-.866 2.88-.287 5.761C189.839 47 198 43 198 43l2.5 6M194.577 20.928c-1.522-.683-3.473-.975-3.473-.975M188.183 36.469s1.75.533 3.61.338" stroke="#000" stroke-width="2" stroke-linecap="round" stroke-linejoin="round"/><path d="M193.549 24.765c.098.097-.24 1.3-1.151 1.346-.911.045-1.151-1.405-1.151-1.405 1.964-1.235 3.766 1.398 3.766 1.398" stroke="#000" stroke-width="2" stroke-linecap="round" stroke-linejoin="round"/><path d="M208.198 28.068s-2.778-2.042-1.542-4.279c1.327-2.393.696-4.805.052-5.605-1.73-2.146-10.466.143-12.612-5.3-2.049-5.188 2.543-12.341 2.543-12.341s2.979 4.65 11.312 4.253c4.767-.222 14.999 2.646 17.92 10.364 2.38 6.288 1.743 11.14-.872 14.332-2.615 3.193-5.23 6.294-5.718 7.166-.481.87-2.614 1.359-3.974.578-1.359-.78-3.655-2.542-3.272-3.511.391-.969 2.16-3.102 1.744-4.578-.677-2.4-5.581-1.08-5.581-1.08z" fill="#000"/><path d="M145.221 111.56s-19.305.123-22.98 0c-3.675-.124-7.038 2.737-9.029 4.298-1.99 1.554-4.67 3.986-4.67 3.986s1.308.559 2.739.559c1.431 0 6.354-2.12 7.285-2.556.936-.435-.625 1.184-.065 2.055.559.871 3.174.995 5.483.806 2.302-.188 8.41-.37 11.084-.312 2.679.065 5.171-.936 6.914-1.183 1.743-.247 2.927.247 3.051.065.123-.182.188-7.718.188-7.718z" fill="#fff" stroke="#000" stroke-width="2" stroke-miterlimit="10" stroke-linecap="round" stroke-linejoin="round"/><path d="M118.565 117.848s1.308-.872 4.918-1.119c3.61-.247 4.982-.559 4.982-.559" fill="#fff"/><path d="M118.565 117.848s1.308-.872 4.918-1.119c3.61-.247 4.982-.559 4.982-.559" stroke="#000" stroke-width="2" stroke-miterlimit="10" stroke-linecap="round" stroke-linejoin="round"/><path d="M172.748 105.343c0 .565-28.841 4.252-28.841 4.252l-.566 13.129 30.318 2.003-.911-19.384z" fill="#0C1C2B" stroke="#000" stroke-width="2" stroke-miterlimit="10" stroke-linecap="round" stroke-linejoin="round"/><path d="M205.303 183.958a4.2 4.2 0 004.202-4.201v-30.51c0-2.321-1.879-4.2-4.202-4.2a4.198 4.198 0 00-4.201 4.2v30.51a4.208 4.208 0 004.201 4.201z" fill="#fff" stroke="#000" stroke-width="2" stroke-miterlimit="10" stroke-linecap="round" stroke-linejoin="round"/><path d="M185.53 147.875h37.576a3.267 3.267 0 003.266-3.264 3.267 3.267 0 00-3.266-3.264H185.53a3.267 3.267 0 00-3.266 3.264 3.267 3.267 0 003.266 3.264z" fill="#fff" stroke="#000" stroke-width="2" stroke-linecap="round" stroke-linejoin="round"/><path d="M150.249 252.129s3.038 4.045 3.181 8.96c.143 4.916-.143 8.525-.143 8.525l-13.588.722-1.015-1.736s-5.204.865-10.121 1.443c-4.918.579-16.769 0-22.408-1.736-5.64-1.736-9.256-2.893-9.686-4.48-.435-1.593.723-5.059.723-5.059s9.828.143 14.888-.436c5.061-.578 14.746-7.373 15.904-8.381 1.158-1.008 3.467-3.18 4.768-1.88 1.301 1.301 4.624 3.323 4.624 4.624 0 1.3 1.301 1.443 3.76 1.736 2.465.299 9.113-2.302 9.113-2.302z" fill="#fff" stroke="#000" stroke-width="2" stroke-miterlimit="10" stroke-linecap="round" stroke-linejoin="round"/><path d="M130.943 255.27s-2.79-3.206-3.974-3.739M127.262 257.585s-2.791-3.206-3.975-3.739M123.639 259.366s-2.791-3.205-3.975-3.739" stroke="#000" stroke-width="2" stroke-linecap="round" stroke-linejoin="round"/><path d="M239.953 171.752a7.212 7.212 0 007.214-7.211V65.398a7.213 7.213 0 00-7.214-7.211 7.212 7.212 0 00-7.214 7.211v99.143c.007 3.98 3.233 7.211 7.214 7.211z" fill="#fff" stroke="#000" stroke-width="2" stroke-linecap="round" stroke-linejoin="round"/><path d="M149.699 114.652s-5.597 2.685-9.186 2.51c-3.59-.174-7.836-.278-10.547.019-2.711.296-7.654-.486-8.46.185-.8.672.356 2.478 1.472 3.017 1.117.539 4.088.687 4.088.687s-12.281 10.429-13.06 12.236c-.779 1.807.137 3.04.137 3.04s-1.559 2.142-1.121 3.714c.437 1.572 2.719 1.09 2.719 1.09s.329 1.397 1.501 1.93c1.171.533 2.17-.054 2.17-.054s1.618.885 2.758.946c1.139.061 12.92-5.813 16.64-9.16 3.72-3.347 5.831-6.118 7.955-7.178 2.125-1.067 8.953-3.915 8.953-3.915" fill="#fff"/><path d="M149.699 114.652s-5.597 2.685-9.186 2.51c-3.59-.174-7.836-.278-10.547.019-2.711.296-7.654-.486-8.46.185-.8.672.356 2.478 1.472 3.017 1.117.539 4.088.687 4.088.687s-12.281 10.429-13.06 12.236c-.779 1.807.137 3.04.137 3.04s-1.559 2.142-1.121 3.714c.437 1.572 2.719 1.09 2.719 1.09s.329 1.397 1.501 1.93c1.171.533 2.17-.054 2.17-.054s1.618.885 2.758.946c1.139.061 12.92-5.813 16.64-9.16 3.72-3.347 5.831-6.118 7.955-7.178 2.125-1.067 8.953-3.915 8.953-3.915M114.142 136.346l10.842-7.893M115.69 141.064l10.842-7.893M119.233 143.148l10.843-7.899" stroke="#000" stroke-width="2" stroke-linecap="round" stroke-linejoin="round"/><path d="M155.978 110.325l-5.724 3.276 8.812 12.925 5.248-2.661" fill="#0C1C2B"/><path d="M155.978 110.325l-5.724 3.276 8.812 12.925 5.248-2.661" stroke="#000" stroke-width="2" stroke-linecap="round" stroke-linejoin="round"/><path d="M195.791 56.316s-3.053 2.901-4.548 8.832c-1.496 5.937-6.966 13.755-9.308 20.482-2.341 6.722-6.128 18.944-7.107 24.345-.979 5.401-3.699 21.039-3.699 21.039s8.465 8.686 12.191 13.486c3.726 4.801 6.959 8.793 14.014 12.073 7.054 3.28 11.874 5.38 17.662 4.467 5.794-.912 11.847-5.079 11.847-5.079s2.422-29.86 2.656-41.184c.234-11.324 3.169-36.935 2.33-44.513-.841-7.572-4.34-17.723-7.256-21.827-2.916-4.104-3.489-4.322-5.195-4.986-1.707-.651-23.587 12.865-23.587 12.865z" fill="#0C1C2B" stroke="#000" stroke-width="2" stroke-linecap="round" stroke-linejoin="round"/><path d="M217.677 39.09c.039-.311-.255-3.84-.255-3.84l-23.898 19.096s3.568 10.292 3.503 9.968c-.065-.325 20.65-25.223 20.65-25.223z" fill="#fff" stroke="#000" stroke-width="2" stroke-miterlimit="10" stroke-linecap="round" stroke-linejoin="round"/><path d="M217.677 39.09l3.406 5.718s-5.81 3.286-11.514 9.867c-5.698 6.582-14.842 18.655-16.987 23.038-2.138 4.384-3.553 7.17-3.553 7.17s6.037-16.804 9.578-24.713c3.541-7.91 19.07-21.08 19.07-21.08z" fill="#0C1C2B" stroke="#000" stroke-width="2" stroke-linecap="round" stroke-linejoin="round"/><path d="M167 126l-10-15.5L192 82l13-15.5 19 .5-1.5 4-11 16-12 12-15 14-17.5 13z" fill="#0C1C2B"/><path d="M156.5 110l10.5 16.5c16.333-11.333 52.8-37.5 60-59.5M156.5 110c27-18 42.5-31.8 50.5-47" stroke="#000" stroke-width="2" stroke-linecap="round" stroke-linejoin="round"/></svg><svg fill="none" viewBox="0 0 214 341" id="worker-typing" xmlns="http://www.w3.org/2000/svg"><path d="M102.064 156.849s4.153.116 5.693.241c1.539.125 10.02.183 11.293-.092 1.282-.266 7.415-3.094 9.446-2.512 2.03.582 11.335 2.812 12.558 4.542 1.223 1.731 2.405 5.882 1.814 8.02-.591 2.138-1.664 3.793-2.613 4.858-.949 1.065-21.713-5.332-27.638-3.561-5.934 1.781-13.05.832-13.05.832l.242-9.483 2.255-2.845zM33.415 53.81c.124-.367-.525-16.181-.525-16.181s-3.512-5.332-3.029-7.046c.491-1.714 1.714-4.035 2.813-5.258 1.099-1.223 3.304-16.63 14.556-15.523C58.48 10.9 72.912 13.105 72.546 17.38c-.367 4.276.308 15.789-1.498 20.972-1.806 5.19-3.762 12.403-8.29 15.332-4.527 2.936-6.849 3.544-6.849 3.544l-1.098 21.03-21.396-24.45z" fill="#fff"/><path d="M160.878 254.605l14.231 30.173s-8.056 7.712-13.374 7.03c-5.318-.682-12.692-5.657-12.692-5.657l-6-24.857 17.835-6.689z" fill="#fff" stroke="#000" stroke-width="2" stroke-miterlimit="10" stroke-linecap="round" stroke-linejoin="round"/><path d="M148.361 280.144s-6.175 24.683-5.143 25.54c1.032.857 8.406 1.714 9.604 1.888 1.198.175 18.866-1.713 21.438-1.888 2.572-.175 16.636.857 20.581-.516 3.945-1.373 10.802-7.371 11.834-8.918 1.032-1.547-3.088-3.768-4.977-4.975-1.889-1.198-14.955-3.502-18.383-6.247-3.429-2.746-6.309-8.552-7.432-11.505-1.44-3.777-4.536-4.701-5.568-5.042-1.032-.341-1.714 5.482-1.714 5.482l3.603 6.689s-4.286 3.261-8.23 5.141c-3.945 1.888-9.088-.175-9.088-.175l-6.525-5.474z" fill="#fff" stroke="#000" stroke-width="2" stroke-linecap="round" stroke-linejoin="round"/><path d="M11.22 331.573S24.652 219.116 28.047 212.02c2.88-6.014 27.88-5.482 36.102-3.702 8.222 1.781 8.622 13.078 10.619 20.848 1.997 7.778 21.555 93.738 21.555 93.738" stroke="#000" stroke-width="8" stroke-miterlimit="10" stroke-linecap="round" stroke-linejoin="round"/><path d="M86.086 280.17l-69.066 7.395 22.737-20.589 46.33 13.194zM43.784 211.405l-5.46 95.735" stroke="#000" stroke-width="8" stroke-miterlimit="10" stroke-linecap="round" stroke-linejoin="round"/><path d="M90.755 264.064S77.53 285.111 76.99 287.291c-.55 2.179-3.154 5.141 1.49 5.956 4.635.815 23.06-7.096 23.06-7.096l5.46-17.046-16.245-5.041z" fill="#fff" stroke="#000" stroke-width="2" stroke-miterlimit="10" stroke-linecap="round" stroke-linejoin="round"/><path d="M96.622 283.572s-.275-5.998 2.322-6.955c2.596-.956 8.047-2.861 8.597-1.638.549 1.231 1.09 9.816 1.914 11.322.815 1.497 17.468 14.591 19.241 14.999 1.772.408 6.416 4.093 6.141 6.955-.274 2.861-4.094 5.731-11.326 6.139-7.232.408-20.739.682-25.516-1.497-4.777-2.18-7.232-2.455-9.962-3.004-2.73-.549-16.236-1.364-18.833-3.136-2.596-1.772-3.412-3.003-3.412-3.003s3.687-9.409 4.91-12.82c1.232-3.41 5.318-10.914 5.318-10.914s-1.365 6.139 1.498 6.68c2.863.549 6.683-3.411 10.644-3.685 3.962-.275 8.464.557 8.464.557z" fill="#fff" stroke="#000" stroke-width="2" stroke-linecap="round" stroke-linejoin="round"/><path d="M47.77 215.398c-15.645 0-28.328-2.686-28.328-5.998 0-3.313 12.683-5.998 28.329-5.998 15.645 0 28.328 2.685 28.328 5.998 0 3.312-12.683 5.998-28.328 5.998z" fill="#000"/><path d="M90.638 174.751s50.666 6.705 53.437 11.098c2.771 4.392 10.644 38.159 13.416 45.554 2.771 7.396 8.33 20.582 8.33 20.582s-2.78 6.247-9.487 7.628c-6.708 1.389-12.958 5.316-12.958 5.316s-18.043-42.552-20.123-47.177c-2.081-4.625-41.644-24.05-41.644-24.05l9.03-18.951z" fill="#0C1C2B" stroke="#000" stroke-width="2" stroke-miterlimit="10"/><path d="M16.38 205.158c-4.328-.383 32.939 8.352 60.144 11.913 13.274 1.738 33.772 1.389 34.928 2.079 1.157.691.691-.69 1.157.691.466 1.389-23.369 45.097-23.369 45.097s1.623 6.015 7.174 6.472c5.551.466 13.182 1.39 15.962 1.39 2.78 0 9.254-2.546 9.254-2.546s4.861-12.503 6.716-16.197c1.856-3.694 8.09-18.26 12.717-24.034 4.627-5.781 9.487-15.032 9.72-19.89.233-4.859-3.004-14.8-12.958-17.803-9.945-3.003-67.551-13.177-70.555-13.41-3.005-.242-50.89 26.238-50.89 26.238z" fill="#0C1C2B" stroke="#000" stroke-width="2" stroke-miterlimit="10"/><path d="M209.255 287.915l-57.79 4.209-27.371-7.254-4.453 1.173.233 8.885 29.719 8.652 59.196-4.909.466-10.756zM203.18 340a5.45 5.45 0 110-10.898 5.45 5.45 0 015.451 5.449A5.45 5.45 0 01203.18 340z" fill="#fff" stroke="#000" stroke-width="2" stroke-miterlimit="10" stroke-linecap="round" stroke-linejoin="round"/><path d="M200.683 340a5.45 5.45 0 110-10.898 5.45 5.45 0 015.451 5.449 5.45 5.45 0 01-5.451 5.449zM116.587 338.744a5.45 5.45 0 110-10.898 5.45 5.45 0 110 10.898z" fill="#fff" stroke="#000" stroke-width="2" stroke-miterlimit="10" stroke-linecap="round" stroke-linejoin="round"/><path d="M114.082 338.744a5.45 5.45 0 110-10.898 5.45 5.45 0 110 10.898zM206.01 311.932a5.45 5.45 0 110-10.898 5.45 5.45 0 110 10.898z" fill="#fff" stroke="#000" stroke-width="2" stroke-miterlimit="10" stroke-linecap="round" stroke-linejoin="round"/><path d="M203.505 311.932a5.45 5.45 0 110-10.898 5.45 5.45 0 110 10.898z" fill="#fff" stroke="#000" stroke-width="2" stroke-miterlimit="10" stroke-linecap="round" stroke-linejoin="round"/><path d="M108.972 286.018s-2.338-.532-6.899 2.762M112.576 289.628s-2.339-.532-6.899 2.762M116.612 293.123s-2.339-.533-6.899 2.762" stroke="#000" stroke-width="2" stroke-miterlimit="10" stroke-linecap="round" stroke-linejoin="round"/><path d="M146.322 195.058h9.121v113.67h-9.121v-113.67z" fill="#fff" stroke="#000" stroke-width="2" stroke-miterlimit="10" stroke-linecap="round" stroke-linejoin="round"/><path d="M213 315.975l-60.178-8.402-6.508 1.156-33.688 5.141.233 12.637 38.373-7.72 61.535 8.652.233-11.464zM210.428 188.752l2.405 2.371-.166 7.429h-89.871v-6.605l5.95-14.201 81.682 11.006z" fill="#fff" stroke="#000" stroke-width="2" stroke-miterlimit="10" stroke-linecap="round" stroke-linejoin="round"/><path d="M130.203 171.931l-2.272 16.222 75.981 1.215 6.525-.608 1.215-16.979-4.702-7.429-4.094-6.821-72.653 14.4z" fill="#fff" stroke="#000" stroke-width="2" stroke-miterlimit="10" stroke-linecap="round" stroke-linejoin="round"/><path d="M151.04 173.866l-.15-8.635h.15L198.5 156l1.225 7.708-48.685 10.158z" fill="#fff" stroke="#000" stroke-width="2" stroke-miterlimit="10" stroke-linecap="round" stroke-linejoin="round"/><path d="M128.072 187.945l2.738-4.342 80.834-11.83M198.5 156.5l12-43.5-2.767.17L196 156.5" stroke="#000" stroke-width="2" stroke-miterlimit="10" stroke-linecap="round" stroke-linejoin="round"/><path d="M122.662 170.218c.291 0 5.376 2.246 4.885 4.492-.491 2.246-3.911 1.364-5.959.582-2.047-.782-4.885-2.537-4.885-2.537l5.959-2.537z" fill="#fff" stroke="#000" stroke-width="2" stroke-miterlimit="10" stroke-linecap="round" stroke-linejoin="round"/><path d="M99.36 165.584s8.738-1.797 11.185-1.672c2.438.125 14.397-1.672 15.937-1.414 1.54.257 7.715.382 10.028 1.93 2.314 1.539 6.042 6.813 6.167 7.32.125.516-.383 1.414-.383 1.414s-.383 2.696-1.032 3.087c-.641.383-3.986-2.696-6.424-4.243-2.439-1.539-7.582-1.281-9.13-1.156-1.54.125-8.422 3.86-12.525 3.96-4.103.099-11.143-.583-12.899-.974-1.756-.391-.924-8.252-.924-8.252z" fill="#fff" stroke="#000" stroke-width="2" stroke-miterlimit="10" stroke-linecap="round" stroke-linejoin="round"/><path d="M142.286 173.171s-5.942-5.682-9.263-6.655c-3.32-.974-4.985-1.173-4.985-1.173M105.011 156.724s11.41 1.231 14.04.275c2.629-.957 7.656-2.87 9.445-2.513 1.798.358 11.601 3.944 12.558 4.543.958.599 1.915 5.856 2.156 7.295.241 1.431-1.315 2.987-1.315 2.987" stroke="#000" stroke-width="2" stroke-miterlimit="10" stroke-linecap="round" stroke-linejoin="round"/><path d="M141.179 168.238s-2.755-6.697-3.945-7.654c-1.198-.956-3.229-1.431-3.229-1.431" stroke="#000" stroke-width="2" stroke-miterlimit="10" stroke-linecap="round" stroke-linejoin="round"/><path d="M100.8 155.784l4.211.932s-5.01 6.164-5.268 7.836c-.258 1.673-7.973.258-7.973.258l9.03-9.026z" fill="#fff" stroke="#000" stroke-width="2" stroke-miterlimit="10" stroke-linecap="round" stroke-linejoin="round"/><path d="M100.242 162.281s1.173 2.413 1.431 6.398c.258 3.984-.124 8.735-.124 8.735s-6.042 3.211-8.223 3.469c-2.189.257-1.506-17.653-1.506-17.653l8.422-.949z" fill="#fff" stroke="#000" stroke-width="2" stroke-miterlimit="10" stroke-linecap="round" stroke-linejoin="round"/><path d="M71.614 146.192l29.186 9.6s-6.026 6.963-6.4 9.6c-.375 2.637-9.038 3.386-14.123 1.315-5.085-2.072-13.365-5.275-13.365-5.275l4.702-15.24z" fill="#0C1C2B" stroke="#000" stroke-width="2" stroke-linecap="round" stroke-linejoin="round"/><path d="M55.984 79.931s3.388 4.143 4.328 11.855c.94 7.72 6.591 18.443 8.472 27.295 1.88 8.843 4.71 24.849 5.085 31.812.374 6.963 1.315 27.103 1.315 27.103s-12.05 9.6-17.51 15.057c-5.46 5.458-10.17 9.975-19.582 12.986-9.413 3.012-15.82 4.892-22.97 2.82C7.966 206.788 1 200.574 1 200.574s1.697-38.018 3.204-52.327c1.506-14.309 1.88-47.052 4.144-56.47 2.264-9.408 8.29-21.645 12.617-26.354 4.327-4.708 5.084-4.891 7.34-5.457 2.255-.55 27.68 19.965 27.68 19.965z" fill="#0C1C2B" stroke="#000" stroke-width="2" stroke-linecap="round" stroke-linejoin="round"/><path d="M65.613 35.724a5.791 5.791 0 110-11.58 5.791 5.791 0 110 11.58zM48.029 35.724a5.791 5.791 0 110-11.58 5.791 5.791 0 110 11.58zM59.755 28.736H53.82M42.311 28.037c-.066-.208-7.007-3.851-7.007-3.851" stroke="#000" stroke-width="2" stroke-miterlimit="10" stroke-linecap="round" stroke-linejoin="round"/><path d="M64.066 29.718a.874.874 0 110-1.747.874.874 0 010 1.747zM47.147 29.718a.873.873 0 110-1.747.873.873 0 010 1.747zM58.914 37.355s-2.455.981-4.277.208M58.972 45.715l-9.487-4.235s-.433 3.869 2.114 5.508c4.494 2.878 7.373-1.273 7.373-1.273zM67.46 22.439s-3.503-1.614-5.392-.7M51.773 20.267s-3.503-1.614-5.392-.698" stroke="#000" stroke-width="2" stroke-miterlimit="10" stroke-linecap="round" stroke-linejoin="round"/><path d="M36.36 38.045s4.228 17.736 15.214 19.259c7.407 1.023 16.22-5.1 20.123-21.413 3.212-13.436-.258-23.102-13.615-24.791-13.35-1.689-21.463 5.324-22.479 9.883-1.015 4.559-.191 6.68-.191 6.68s-2.097-1.356-4.544 1.09c-2.447 2.446 2.03 8.868 2.03 8.868l.425 13.01M55.793 57.462l-.674 18.01" stroke="#000" stroke-width="2" stroke-miterlimit="10" stroke-linecap="round" stroke-linejoin="round"/><path d="M32.849 29.11a4.565 4.565 0 005.226-3.394c.55-2.22 1.248-4.825 1.898-6.439 1.315-3.277 4.336-3.544 12.999-2.628 8.663.915 16.628.407 18.176 5.598.665 2.23-.092 16.114-.092 16.114s2.73-6.156 3.912-12.195c1.181-6.04.083-8.178.083-11.081 0-.242 2.072-1.814 3.204-5.1 1.24-3.619 1.548-8.984 1.548-8.984S73.71 4.844 64.78 2.48c-1.107-.29-2.48-.674-4.028-1.048-7.715-1.855-19.94-3.56-26.822 6.165C26.707 17.797 30.86 28.76 30.86 28.76l1.989.35z" fill="#000"/><path d="M31.143 54.742c0-.4.932-4.8.932-4.8l27.08 27.868s-6.133 12.404-6 12.004c.133-.399-22.012-35.072-22.012-35.072z" fill="#fff" stroke="#000" stroke-width="2" stroke-miterlimit="10" stroke-linecap="round" stroke-linejoin="round"/><path d="M31.143 54.741l-5.202 6.664s6.8 5.066 12.941 14.267c6.134 9.2 15.738 25.872 17.743 31.737 1.998 5.865 3.337 9.6 3.337 9.6s-4.935-22.137-8.139-32.669c-3.204-10.532-20.68-29.599-20.68-29.599z" fill="#0C1C2B" stroke="#000" stroke-width="2" stroke-linecap="round" stroke-linejoin="round"/><path d="M15.222 117.841s1.998 2.986 4.128 8.968c2.139 5.981 22.92 45.971 26.198 47.959 3.271 1.996 47.837 9.109 47.837 9.109s2.846-6.123 3.561-11.097c.716-4.975-1.564-10.391-1.564-10.391s-28.662-5.091-31.675-7.537c-3.012-2.446-6.965-5.274-7.157-6.397-.191-1.132-3.77-15.815-4.519-21.455-.757-5.648-3.012-17.129-4.327-22.395-1.315-5.274-5.834-12.237-6.783-13.551" fill="#0C1C2B"/><path d="M15.222 117.841s1.998 2.986 4.128 8.968c2.139 5.981 22.92 45.971 26.198 47.959 3.271 1.996 47.837 9.109 47.837 9.109s2.846-6.123 3.561-11.097c.716-4.975-1.564-10.391-1.564-10.391s-28.662-5.091-31.675-7.537c-3.012-2.446-6.965-5.274-7.157-6.397-.191-1.132-3.77-15.815-4.519-21.455-.757-5.648-3.012-17.129-4.327-22.395-1.315-5.274-5.834-12.237-6.783-13.551" stroke="#000" stroke-width="2" stroke-linecap="round" stroke-linejoin="round"/><path d="M112.609 219.84s5.601-2.836 6.242-6.538" stroke="#000" stroke-width="2" stroke-miterlimit="10" stroke-linecap="round"/></svg></svg>